<svg width="216" height="228" viewBox="0 0 216 228" fill="none" xmlns="http://www.w3.org/2000/svg">
<path d="M136.328 146.679C108.738 170.561 67.479 167.254 43.9275 140.225C43.8792 140.174 43.8273 140.114 43.7793 140.059L16.9168 109.057C-6.77578 81.7129 -3.80233 40.1966 23.5375 16.5076C50.8768 -7.18531 92.398 -4.21497 116.086 23.1284L130.919 40.2468C134.852 44.7864 131.515 51.8809 125.512 51.6714C117.862 51.4045 110.098 52.2244 102.515 54.2195C99.9474 54.8952 97.2184 54.0859 95.4796 52.0791L90.2482 46.0416C79.0451 33.112 59.4249 31.3281 46.3859 42.4039C33.2184 53.5892 31.7265 73.4155 43.0148 86.4433L69.873 117.445C81.142 130.451 100.764 131.803 113.715 120.581C115.419 119.102 116.77 117.585 117.723 116.393C118.395 115.55 119.255 114.875 120.235 114.423C121.214 113.971 122.286 113.755 123.364 113.79C127.926 113.945 132.498 115.893 135.836 119.745L144.253 129.458C146.46 132.005 146.485 135.755 144.364 138.374C141.934 141.372 139.245 144.152 136.328 146.679V146.679ZM192.668 211.699C220.008 188.01 222.982 146.493 199.289 119.15L172.427 88.1476C172.379 88.0922 172.327 88.0322 172.278 87.9812C148.727 60.9523 107.468 57.6454 79.8778 81.5268C76.9609 84.0543 74.272 86.8335 71.8422 89.8323C69.7214 92.451 69.747 96.2013 71.9535 98.7479L80.3701 108.461C83.7079 112.313 88.2807 114.26 92.8424 114.415C93.9205 114.451 94.992 114.234 95.9715 113.783C96.951 113.331 97.8113 112.656 98.4838 111.813C99.4367 110.621 100.787 109.104 102.492 107.624C115.443 96.4025 135.064 97.7552 146.333 110.761L173.192 141.763C184.48 154.79 182.988 174.616 169.82 185.802C156.781 196.878 137.161 195.094 125.958 182.164L120.727 176.127C118.988 174.12 116.259 173.311 113.691 173.986C106.108 175.981 98.3443 176.801 90.6943 176.534C84.6915 176.325 81.3539 183.419 85.2873 187.959L100.12 205.077C123.808 232.421 165.329 235.392 192.668 211.699V211.699Z" fill="#595959" fill-opacity="0.2"/>
</svg>
