<svg width="172" height="172" viewBox="0 0 172 172" fill="none" xmlns="http://www.w3.org/2000/svg">
<path d="M91.7762 0.734283C44.6507 -2.43345 3.9022 33.182 0.734467 80.3075C-2.43326 127.433 33.1822 168.182 80.3077 171.349C127.433 174.517 168.182 138.902 171.349 91.7761C174.517 44.6505 138.902 3.90201 91.7762 0.734283ZM117.214 115.78C117.011 118.807 114.368 121.117 111.341 120.914L56.3037 117.214C53.2766 117.011 50.9665 114.368 51.1699 111.341L54.8695 56.3035C55.0729 53.2765 57.7161 50.9663 60.7431 51.1698L115.78 54.8693C118.807 55.0728 121.117 57.7159 120.914 60.743L117.214 115.78Z" fill="#595959" fill-opacity="0.2"/>
</svg>
