<svg width="179" height="234" viewBox="0 0 179 234" fill="none" xmlns="http://www.w3.org/2000/svg">
<path d="M45.2725 165.734C41.2218 161.762 43.3334 162.882 33.5631 160.318C29.1301 159.153 25.2331 156.913 21.7091 154.23L0.56029 205.07C-1.48607 209.992 2.33629 215.339 7.75285 215.138L32.3138 214.219L49.2068 231.714C52.9359 235.571 59.4805 234.369 61.5269 229.447L85.7895 171.122C80.7365 173.882 75.1289 175.5 69.3301 175.5C60.2403 175.5 51.7006 172.031 45.2725 165.734V165.734ZM178.44 205.07L157.291 154.23C153.767 156.918 149.87 159.153 145.437 160.318C135.615 162.896 137.769 161.771 133.727 165.734C127.299 172.031 118.755 175.5 109.665 175.5C103.866 175.5 98.2588 173.878 93.2058 171.122L117.468 229.447C119.515 234.369 126.064 235.571 129.789 231.714L146.686 214.219L171.247 215.138C176.664 215.339 180.486 209.987 178.44 205.07V205.07ZM122.596 155.391C129.719 148.285 130.534 148.897 140.678 146.187C147.152 144.455 152.215 139.405 153.949 132.942C157.435 119.963 156.531 121.53 166.045 112.034C170.786 107.303 172.636 100.407 170.902 93.9446C167.42 80.9743 167.415 82.7841 170.902 69.8001C172.636 63.3378 170.786 56.4414 166.045 51.7112C156.531 42.2143 157.435 43.7773 153.949 30.8024C152.215 24.3401 147.152 19.29 140.678 17.5579C127.682 14.08 129.248 14.9894 119.725 5.48795C114.984 0.757772 108.071 -1.09317 101.596 0.638946C88.605 4.11231 90.4183 4.11688 77.4036 0.638946C70.9289 -1.09317 64.0161 0.753202 59.2754 5.48795C49.7615 14.9849 51.3277 14.08 38.327 17.5579C31.8523 19.29 26.79 24.3401 25.056 30.8024C21.5739 43.7773 22.4736 42.2143 12.9596 51.7112C8.21899 56.4414 6.36375 63.3378 8.10245 69.8001C11.5845 82.7613 11.5892 80.9514 8.10245 93.94C6.36841 100.402 8.21899 107.299 12.9596 112.034C22.4736 121.53 21.5693 119.963 25.056 132.942C26.79 139.405 31.8523 144.455 38.327 146.187C48.7593 148.975 49.5377 148.536 56.404 155.391C62.571 161.547 72.1782 162.649 79.5898 158.051C82.5536 156.206 85.9917 155.227 89.5023 155.227C93.0129 155.227 96.451 156.206 99.4148 158.051C106.822 162.649 116.429 161.547 122.596 155.391ZM45.5243 80.4213C45.5243 56.1854 65.2141 36.538 89.5 36.538C113.786 36.538 133.476 56.1854 133.476 80.4213C133.476 104.657 113.786 124.305 89.5 124.305C65.2141 124.305 45.5243 104.657 45.5243 80.4213V80.4213Z" fill="#C481B6" fill-opacity="0.5"/>
</svg>
