<svg width="228" height="159" viewBox="0 0 228 159" fill="none" xmlns="http://www.w3.org/2000/svg">
<path d="M216.6 102.214H193.8V124.929H201.78C203.668 124.929 205.2 126.206 205.2 127.768V133.446C205.2 135.008 203.668 136.286 201.78 136.286H26.22C24.3319 136.286 22.8 135.008 22.8 133.446V127.768C22.8 126.206 24.3319 124.929 26.22 124.929H34.2V102.214H11.4C5.09437 102.214 0 107.29 0 113.571V147.643C0 153.925 5.09437 159 11.4 159H216.6C222.906 159 228 153.925 228 147.643V113.571C228 107.29 222.906 102.214 216.6 102.214ZM182.4 124.929V11.4636C182.4 5.11072 177.234 0 170.893 0H57.1425C50.7656 0 45.6 5.14621 45.6 11.4636V124.929H182.4ZM75.24 60.3348L84.3244 51.3556C85.8206 49.865 88.2431 49.865 89.7394 51.3911L104.453 66.1554L138.367 32.6518C139.864 31.1612 142.286 31.1612 143.782 32.6873L152.796 41.7375C154.292 43.2281 154.292 45.6415 152.76 47.1321L107.053 92.2768C105.557 93.7674 103.134 93.7674 101.638 92.2413L75.24 65.7295C73.7081 64.2388 73.7437 61.8254 75.24 60.3348V60.3348Z" fill="#24436F" fill-opacity="0.5"/>
</svg>
