<svg xmlns="http://www.w3.org/2000/svg" width="116" height="116" fill="none" viewBox="0 0 116 116">
    <g clip-path="url(#prefix__clip0)">
        <path fill="#4B3C59" d="M91.454 22.274c-2.582-8.823-9.031-15.67-17.646-18.716C66.298.902 58.043-1.377 50.248.994c-4.93.72-9.743 2.515-13.698 5.14-7.341 4.874-11.129 12.937-12.485 21.422-1.384 8.658-.542 18.005 4.944 25.207 2.507 3.291 5.348 5.32 8.846 7.372 3.694 2.167 3.915 6.687 3.811 10.511-.198 7.284-.618 15.747 1.781 22.713.042.12.106.236.185.343.898 2.99 2.64 5.804 4.227 8.366 1.528 2.469 2.845 5.011 4.17 7.596.837 1.635 2.03 4.983 3.636 6.001 1.395.883 2.367-.145 3.258-1.159 1.948-2.218 3.78-4.352 5.49-6.759 1.729-2.43 3.322-5.047 4.73-7.676 1.157-2.159 2.278-4.014 2.812-6.419.561-2.527.853-5.106 1.142-7.675.602-5.335 1.189-10.692 1.121-16.069-.028-2.212-.829-4.998.127-7.008.923-1.942 2.832-3.169 4.33-4.622 3.282-3.184 6.373-6.8 8.64-10.792 4.41-7.761 6.693-16.485 4.139-25.212zM44.43 81.622c0-.535.005-1.097.007-1.668.377.18.8.339 1.279.472 1.861.519 3.785.766 5.727.878-.12 1.788.2 3.803.212 5.464.008 1.252.004 2.534.092 3.803-.444-.448-1.01-.786-1.916-.893-1.41-.166-3.095.243-4.435 1.038-.741-2.958-.97-6.05-.966-9.094zm10.944-42.747c3.349 2.557 7.81 2.638 11.552.769-.146 3.823-.467 7.633-.535 11.46-.085 4.802-.544 9.585-.689 14.383-.126 4.184-.47 8.357-.8 12.527-.025.094-.043.193-.043.304-3.937.184-7.832.392-11.783.333-.26-.004-.52-.01-.779-.018-.623-4.42-.452-8.969-.901-13.408-.437-4.317-.656-8.656-1.06-12.978-.348-3.737-.817-7.456-1.27-11.18 1.427-.023 2.9-.335 4.333-.959.694-.303 1.36-.724 1.975-1.233zm-.095-2.975c-1.327-1.548-2.044-3.587-1.257-5.668.26-.687.522-3.034 1.933-2.258.2.11.543 1.235.542 1.234.544 1.565.527 3.197-.11 4.732-.304.734-.675 1.387-1.108 1.96zm5.787 55.006c-.894-1.159-1.894-1.929-3.9-1.793-1.751.118-2.884.57-3.76 1.41-.036-1.259-.136-2.526-.13-3.755.007-1.735.174-3.617-.016-5.395 2.053.041 4.111-.024 6.126-.044.628-.006 1.257-.031 1.887-.064-.114 3.185-.408 6.45-.207 9.641zm-1.805 19.366c-.593.682-1.52 2.126-2.29 2.558l-.135.162c-.208-.396-.427-.785-.661-1.166-.876-1.496-1.706-3.014-2.53-4.533.915-.206 1.832-.508 2.759-.658 1.184-.191 2.391-.463 3.528.144.476.254.892.635 1.331.968-.639.868-1.3 1.718-2.002 2.525zm4.592-6.37c-.476.771-.976 1.533-1.488 2.287-.304-.213-.639-.394-.867-.554-.86-.601-1.764-.967-2.823-1.013-1.362-.06-2.694.385-3.962.818-.662.226-1.09.59-1.557.948-1.163-2.148-2.33-4.294-3.616-6.381-1.3-2.11-2.638-4.17-3.527-6.483 1.06-.96 3.151-1.874 4.348-.967.698.53.852 1.587 1.494 2.203.538.516 1.634.508 1.985-.256.695-1.514 1.445-2.88 3.326-2.89 1.828-.01 2.362 1.448 3.273 2.72.659.92 1.863.718 2.275-.297 1.164-2.87 5.113-2.062 6.685-.101-1.876 3.303-3.544 6.723-5.546 9.966zm6.187-12.725c-2.188-1.603-5.153-1.95-7.342-.663.068-1.83.01-3.678.123-5.488.068-1.093.454-2.616.31-3.882.988-.073 1.975-.153 2.958-.215 1.666-.106 3.565-.195 5.1-.937-.613 3.671-.548 7.515-1.149 11.185zm16.795-48.714c-1.773 3.827-4.014 7.243-6.742 10.464-2.36 2.785-5.62 4.93-7.705 7.925-1.746 2.507-.913 5.653-.685 8.481.16 1.98.25 4.309-.28 6.23-.566 2.056-2.392 2.507-4.281 2.649.667-9.316 1.306-18.715 1.439-28.055.056-3.95.32-7.879.434-11.822.279-.215.552-.439.815-.678 2.264-2.055 3.724-5.16 3.106-8.269-.359-1.804-1.935-4.488-4.06-2.937C66.221 28.39 67.01 33.8 67 36.514c-.001.286-.009.57-.013.856-.347.24-.702.46-1.064.657-2.893 1.572-6.124 1.203-8.823-.538-.076-.049-.15-.103-.225-.155 1.047-1.318 1.794-2.887 2.04-4.436.348-2.177-.018-5.88-2.15-7.14-2.263-1.337-3.94 1.326-4.442 3.136-.703 2.543-.792 5.37.803 7.63.213.304.44.587.672.857-1.14.852-2.526 1.367-4.124 1.545-.29.032-.576.046-.861.052-.423-3.516-.915-7.293-2.36-10.504-.855-1.903-2.695-2.904-4.588-1.595-2.036 1.41-2.497 4.6-2.04 6.842.811 3.984 3.652 6.471 7.085 7.157.15 1.584.277 3.146.447 4.622.662 5.752 1.104 11.506 1.563 17.277.41 5.169.433 10.653 1.565 15.746-1.207-.107-2.403-.288-3.593-.587-2.864-.72-2.663-2.533-2.585-5.005.1-3.178.344-7.031-.723-10.07-.976-2.776-3.02-4.305-5.52-5.616C30.527 53.29 26.83 44.96 26.106 36.827c-.81-9.1 2.147-19.76 8.869-26.166 4.221-4.024 9.775-6.183 15.475-7.048 6.25-.948 12.455-1.031 18.489 1.026 3.581 1.221 7.316 2.59 10.507 4.66 3.136 2.034 5.507 5.448 7.221 8.7 2.046 3.879 3.331 7.789 3.26 12.205-.067 4.227-1.323 8.44-3.091 12.259zM69.15 30.942c.113-.806-.052-1.65.95-1.72.865-.06.801.42.845 1.293.096 1.885-.686 3.599-1.885 4.998.002-.317.007-.633.005-.95-.006-1.205-.082-2.426.085-3.621zm-22.464 7.821c-1.948-.466-3.582-1.686-4.376-3.803-.468-1.25-.776-2.634-.448-3.959.129-.52.265-.974.597-1.416 1.061-1.41 1.952.142 2.42 1.261 1 2.4 1.485 5.15 1.807 7.917z"/>
    </g>
    <defs>
        <clipPath id="prefix__clip0">
            <path fill="#fff" d="M0 0H116V116H0z"/>
        </clipPath>
    </defs>
</svg>
