<svg width="115" height="114" viewBox="0 0 115 114" fill="none" xmlns="http://www.w3.org/2000/svg">
<path d="M112.459 30.2862L105.128 29.2482C104.628 29.1732 104.177 28.9042 103.874 28.4995C103.57 28.0948 103.438 27.5869 103.506 27.0856C103.588 26.5968 103.85 26.1566 104.242 25.8529L110.189 21.398C110.386 21.2491 110.553 21.0626 110.678 20.8493C110.804 20.6361 110.886 20.4001 110.92 20.1551C110.954 19.91 110.939 19.6606 110.877 19.4211C110.815 19.1817 110.706 18.9569 110.556 18.7596L103.766 9.72C103.465 9.32232 103.02 9.05871 102.526 8.98591C102.033 8.91311 101.531 9.03694 101.127 9.33073L95.202 13.8073C95.0048 13.9567 94.7799 14.0657 94.5405 14.128C94.301 14.1904 94.0517 14.2049 93.8066 14.1708C93.5615 14.1366 93.3256 14.0545 93.1123 13.929C92.899 13.8036 92.7126 13.6373 92.5637 13.4397C92.2601 13.0382 92.1278 12.5327 92.196 12.034L93.2556 4.7028C93.3238 4.2015 93.1918 3.69354 92.8883 3.28883C92.5848 2.88411 92.134 2.61518 91.6337 2.54021L80.4532 0.939897C80.2057 0.900096 79.9529 0.910122 79.7094 0.969398C79.4659 1.02867 79.2366 1.136 79.0352 1.28508C78.8337 1.43415 78.6641 1.62197 78.5362 1.8375C78.4083 2.05304 78.3248 2.29195 78.2906 2.54021L77.2526 9.87138C77.2183 10.1196 77.1348 10.3585 77.0069 10.5741C76.8791 10.7896 76.7094 10.9774 76.508 11.1265C76.3065 11.2756 76.0773 11.3829 75.8338 11.4422C75.5903 11.5015 75.3374 11.5115 75.09 11.4717C74.845 11.4405 74.609 11.3591 74.3969 11.2326C74.1848 11.1061 74.0011 10.9372 73.8573 10.7364L69.4024 4.81091C69.2535 4.6133 69.067 4.44701 68.8537 4.32155C68.6404 4.19609 68.4045 4.11393 68.1594 4.07978C67.9143 4.04563 67.665 4.06016 67.4255 4.12253C67.186 4.18491 66.9612 4.2939 66.7639 4.44328L61.098 8.76845C58.531 8.509 55.9445 8.509 53.3775 8.76845C45.231 9.70095 37.6513 13.4008 31.9046 19.2498C26.1579 25.0989 22.5924 32.7428 21.8038 40.9045C21.8038 41.4452 21.8038 41.9642 21.6957 42.5048H21.1334C20.7024 42.5054 20.2847 42.6539 19.9501 42.9255C19.6156 43.1971 19.3844 43.5754 19.2952 43.997L17.9976 50.2036L12.7642 46.5921C12.4006 46.3456 11.9629 46.2324 11.5254 46.2718C11.0878 46.3112 10.6774 46.5008 10.3637 46.8084L4.71937 52.4744C4.40847 52.7854 4.2149 53.1945 4.17153 53.6321C4.12816 54.0697 4.23765 54.5088 4.48145 54.8748L8.07135 60.0867L1.86474 61.3842C1.44345 61.4785 1.06743 61.7147 0.799678 62.0533C0.531925 62.392 0.388742 62.8124 0.394193 63.244V70.7698C0.39382 71.2035 0.541518 71.6242 0.812878 71.9624C1.08424 72.3007 1.46299 72.536 1.88638 72.6297L8.093 73.9272L4.5031 79.1391C4.25249 79.5012 4.13689 79.9398 4.17641 80.3785C4.21593 80.8171 4.40806 81.228 4.71937 81.5395L10.3853 87.2055C10.699 87.5131 11.1095 87.7027 11.547 87.7421C11.9846 87.7815 12.4222 87.6683 12.7858 87.4218L17.9976 83.8319L19.2952 90.0169C19.38 90.4425 19.6093 90.8257 19.9443 91.1016C20.2793 91.3775 20.6994 91.5291 21.1334 91.5307H28.6808C29.1134 91.5272 29.5323 91.378 29.8697 91.1073C30.2071 90.8366 30.4435 90.46 30.5407 90.0385L31.8382 83.8319L37.0501 87.4218C37.4137 87.6683 37.8514 87.7815 38.2889 87.7421C38.7264 87.7027 39.1368 87.5131 39.4505 87.2055L42.37 84.2644V89.4979C42.3818 90.8151 42.737 92.1064 43.4008 93.2443C44.0645 94.3821 45.0137 95.327 46.1546 95.9856V106.453C46.1517 107.443 46.3443 108.424 46.7212 109.339C47.0981 110.255 47.6521 111.087 48.3512 111.788C49.0503 112.489 49.8808 113.045 50.7953 113.425C51.7098 113.805 52.6902 114 53.6803 114H61.2277C62.2189 114 63.2003 113.805 64.116 113.425C65.0317 113.046 65.8638 112.49 66.5646 111.789C67.2655 111.089 67.8214 110.257 68.2007 109.341C68.58 108.425 68.7753 107.444 68.7753 106.453V95.9856C69.9135 95.326 70.8595 94.3802 71.5196 93.2422C72.1796 92.1042 72.5308 90.8134 72.5381 89.4979V82.0369C72.5606 80.4949 72.968 78.983 73.7233 77.6385C74.4787 76.294 75.5581 75.1595 76.8633 74.3381C78.3909 73.3202 79.837 72.185 81.1885 70.9428L78.6798 68.1315C77.4357 69.251 76.1053 70.2706 74.7007 71.1807C72.8656 72.3324 71.3481 73.9253 70.2866 75.8141C69.2251 77.7028 68.6535 79.8273 68.6239 81.9937V89.4979C68.6267 89.9938 68.5315 90.4855 68.3436 90.9445C68.1558 91.4035 67.8791 91.8209 67.5294 92.1726C67.1797 92.5243 66.7639 92.8035 66.3059 92.9939C65.848 93.1844 65.357 93.2824 64.861 93.2824H49.7229C49.2269 93.2824 48.7358 93.1844 48.2778 92.9939C47.8199 92.8035 47.4041 92.5243 47.0544 92.1726C46.7047 91.8209 46.4279 91.4035 46.2401 90.9445C46.0523 90.4855 45.957 89.9938 45.9599 89.4979V81.9288C45.9363 79.7947 45.3751 77.701 44.328 75.8413C43.281 73.9816 41.7819 72.4158 39.9695 71.2889C34.1113 67.6033 29.6077 62.1158 27.1356 55.6512C24.6635 49.1867 24.3566 42.0943 26.2608 35.4403C28.1651 28.7863 32.1778 22.9302 37.6956 18.7522C43.2134 14.5743 49.9383 12.3002 56.8594 12.2719V12.4665C56.7936 12.9651 56.9255 13.4696 57.227 13.8722L61.6819 19.7976C61.9074 20.1131 62.0285 20.4912 62.0285 20.8789C62.0285 21.2667 61.9074 21.6448 61.6819 21.9602C61.4945 22.2807 61.2144 22.537 60.8786 22.6953C60.5428 22.8535 60.1669 22.9064 59.8005 22.8469L52.4693 21.8089C52.2218 21.7691 51.969 21.7791 51.7255 21.8384C51.482 21.8976 51.2527 22.005 51.0513 22.1541C50.8498 22.3031 50.6802 22.4909 50.5523 22.7065C50.4245 22.922 50.341 23.1609 50.3067 23.4092L48.7064 34.6114C48.6666 34.8588 48.6767 35.1117 48.736 35.3552C48.7952 35.5987 48.9025 35.8279 49.0516 36.0293C49.2006 36.2308 49.3884 36.4005 49.6039 36.5283C49.8195 36.6562 50.0584 36.7397 50.3067 36.774V36.774L57.6379 37.812C57.8861 37.8463 58.1251 37.9298 58.3406 38.0577C58.5562 38.1855 58.7439 38.3552 58.893 38.5566C59.0421 38.7581 59.1495 38.9873 59.2087 39.2308C59.268 39.4743 59.278 39.7272 59.2382 39.9746C59.207 40.2196 59.1257 40.4555 58.9991 40.6676C58.8726 40.8797 58.7037 41.0634 58.503 41.2073L52.5774 45.6622C52.3774 45.8093 52.2089 45.9949 52.0817 46.2082C51.9546 46.4214 51.8714 46.658 51.8372 46.9039C51.8029 47.1498 51.8183 47.4 51.8823 47.6399C51.9463 47.8798 52.0576 48.1044 52.2098 48.3006L58.9787 57.3402C59.126 57.5395 59.3112 57.7077 59.5237 57.8351C59.7362 57.9626 59.9718 58.0468 60.2169 58.083C60.4621 58.1192 60.712 58.1066 60.9523 58.0459C61.1925 57.9852 61.4185 57.8777 61.6171 57.7294L67.5642 53.2745C67.9673 52.9807 68.4695 52.8569 68.963 52.9297C69.4564 53.0025 69.9015 53.2661 70.2025 53.6638C70.4889 54.0647 70.6125 54.5593 70.5485 55.0479L69.5105 62.4006C69.4707 62.6481 69.4808 62.901 69.54 63.1445C69.5993 63.388 69.7066 63.6172 69.8556 63.8186C70.0047 64.0201 70.1926 64.1897 70.4082 64.3176C70.6237 64.4454 70.8625 64.529 71.1108 64.5632L82.313 66.1635H82.5725C83.0259 66.1627 83.4638 65.9981 83.8055 65.7001C84.1473 65.402 84.3698 64.9907 84.4324 64.5416L85.8813 57.059C85.9127 56.8095 85.9944 56.569 86.1214 56.3519C86.2484 56.1349 86.418 55.9459 86.6202 55.7963C86.8223 55.6467 87.0527 55.5396 87.2974 55.4816C87.5421 55.4236 87.7961 55.4158 88.0439 55.4587C88.542 55.5304 88.9923 55.7944 89.2982 56.194L93.7531 62.1195C93.9004 62.3188 94.0856 62.487 94.2981 62.6144C94.5106 62.7419 94.7462 62.8262 94.9914 62.8623C95.2365 62.8985 95.4864 62.8859 95.7267 62.8252C95.967 62.7645 96.1928 62.657 96.3914 62.5088L105.431 55.7182C105.824 55.4139 106.084 54.9692 106.157 54.4774C106.229 53.9856 106.109 53.4848 105.82 53.0799L101.365 47.1328C101.144 46.8349 101.016 46.4782 100.997 46.1077C100.978 45.7372 101.069 45.3693 101.259 45.0503C101.448 44.7314 101.728 44.4756 102.062 44.3151C102.397 44.1546 102.771 44.0966 103.139 44.1484L110.47 45.1864C110.717 45.2262 110.97 45.2162 111.214 45.1569C111.457 45.0976 111.686 44.9903 111.888 44.8413C112.089 44.6922 112.259 44.5044 112.387 44.2888C112.515 44.0733 112.598 43.8344 112.632 43.5861L114.233 32.3839C114.273 32.1365 114.263 31.8836 114.203 31.6401C114.144 31.3966 114.037 31.1674 113.888 30.9659C113.739 30.7645 113.551 30.5949 113.335 30.467C113.12 30.3391 112.881 30.2556 112.632 30.2213L112.459 30.2862ZM50.1336 97.0237H65.2718V100.808H50.1336V97.0237ZM50.1336 104.571H65.2718V106.453C65.266 107.453 64.8649 108.41 64.1557 109.115C63.4466 109.82 62.4872 110.215 61.4872 110.215H53.9398C53.4457 110.215 52.9564 110.118 52.4999 109.929C52.0434 109.74 51.6285 109.463 51.2791 109.113C50.9297 108.764 50.6525 108.349 50.4634 107.893C50.2743 107.436 50.1769 106.947 50.1769 106.453L50.1336 104.571ZM35.1253 72.1323C36.1539 72.9784 37.2297 73.7654 38.3476 74.4895C40.1274 75.6126 41.4644 77.3162 42.1321 79.3121L38.0881 83.3561L33.9792 80.6312C33.1589 80.0638 32.1468 79.8454 31.1655 80.0238C30.1841 80.2022 29.3138 80.7629 28.7457 81.5828C28.4679 81.9966 28.2699 82.4587 28.1618 82.9452L27.167 87.6596H22.6905L21.6957 82.9668C21.5953 82.4824 21.4003 82.0225 21.122 81.6135C20.8437 81.2045 20.4874 80.8545 20.0736 80.5833C19.6598 80.3121 19.1966 80.1252 18.7105 80.0332C18.2244 79.9413 17.725 79.9461 17.2408 80.0474C16.7529 80.1514 16.2901 80.3497 15.8783 80.6312L11.9424 83.3345L8.5039 79.896L11.2071 75.9817C11.7757 75.1579 11.9947 74.1425 11.8164 73.1577C11.6381 72.1728 11.0769 71.2987 10.2556 70.7266C9.84178 70.4488 9.3797 70.2508 8.89315 70.1427L4.17872 69.1695V64.6714L8.89315 63.6982C9.8692 63.4855 10.7216 62.8956 11.2645 62.057C11.8073 61.2184 11.9966 60.1992 11.791 59.2216C11.6829 58.7351 11.4849 58.273 11.2071 57.8592L8.5039 53.9449L11.9424 50.5064L15.8783 53.2096C16.6986 53.777 17.7106 53.9955 18.692 53.8171C19.6733 53.6387 20.5437 53.0779 21.1118 52.2581C21.3857 51.8422 21.5835 51.3809 21.6957 50.8957L22.0201 49.317C22.3195 51.5204 22.819 53.6919 23.5123 55.8047C21.5748 56.0386 19.7309 56.7699 18.1596 57.9273C16.5884 59.0848 15.3435 60.6291 14.5457 62.4101C13.748 64.1911 13.4246 66.1483 13.6071 68.0912C13.7896 70.0342 14.4717 71.8969 15.5872 73.4982C16.7026 75.0995 18.2134 76.385 19.9726 77.2296C21.7319 78.0743 23.6798 78.4493 25.6269 78.3184C27.574 78.1874 29.4541 77.5549 31.0844 76.4822C32.7147 75.4096 34.0398 73.9334 34.9307 72.1972L35.1253 72.1323ZM32.1843 69.4723C31.717 70.7688 30.9026 71.912 29.8301 72.7774C28.7575 73.6428 27.468 74.1971 26.102 74.3798C24.7361 74.5625 23.3462 74.3666 22.0839 73.8136C20.8216 73.2605 19.7355 72.3714 18.9439 71.2433C18.1523 70.1152 17.6856 68.7914 17.5948 67.4163C17.504 66.0411 17.7926 64.6675 18.429 63.4451C19.0654 62.2227 20.0252 61.1985 21.2038 60.4843C22.3823 59.77 23.7344 59.3931 25.1126 59.3946V59.3946C26.8123 63.1209 29.1466 66.5235 32.0112 69.4507L32.1843 69.4723ZM109.151 41.2289L103.679 40.4504C102.57 40.2867 101.437 40.4571 100.425 40.9399C99.413 41.4227 98.5678 42.196 97.997 43.1612C97.4262 44.1264 97.1558 45.2398 97.2203 46.3592C97.2849 47.4787 97.6815 48.5535 98.3595 49.4467L101.668 53.7719L95.6346 58.2917L92.3257 53.9666C91.8806 53.3721 91.3225 52.8713 90.6835 52.4929C90.0444 52.1145 89.337 51.8659 88.6017 51.7614C87.8664 51.657 87.1177 51.6986 86.3986 51.8841C85.6794 52.0695 85.0039 52.395 84.4107 52.842C83.822 53.288 83.3277 53.8464 82.9564 54.485C82.5852 55.1235 82.3445 55.8294 82.2481 56.5617L81.4696 62.033L74.0087 60.9733L74.7872 55.502C74.9509 54.3927 74.7804 53.2597 74.2976 52.2477C73.8148 51.2356 73.0415 50.3903 72.0763 49.8195C71.1111 49.2488 69.9978 48.9784 68.8784 49.043C67.7589 49.1075 66.6841 49.5041 65.7909 50.182L61.4657 53.4908L56.9458 47.4571L61.271 44.1484C62.4668 43.2458 63.2565 41.9063 63.4673 40.423C63.678 38.9397 63.2927 37.4333 62.3956 36.2333C61.9488 35.6455 61.39 35.1518 60.7516 34.7806C60.1133 34.4095 59.4078 34.1682 58.6759 34.0707L53.2046 33.2922L54.2859 25.8313L59.7572 26.6098C60.4913 26.7136 61.2387 26.6718 61.9567 26.4867C62.6747 26.3017 63.3492 25.9769 63.9417 25.531C64.5341 25.0852 65.0329 24.527 65.4096 23.8884C65.7862 23.2497 66.0334 22.5431 66.1368 21.8089C66.3454 20.3256 65.9651 18.8197 65.0772 17.6134L61.7469 13.2883L67.7804 8.76845L71.0891 13.0936C71.9956 14.2909 73.3389 15.0811 74.8257 15.2917C76.3126 15.5024 77.8225 15.1165 79.0259 14.2182C79.6164 13.7739 80.1118 13.2159 80.4833 12.577C80.8547 11.9382 81.0945 11.2315 81.1885 10.4985L81.9886 5.02719L89.4496 6.08685L88.671 11.5582C88.5073 12.6675 88.6777 13.8004 89.1605 14.8125C89.6433 15.8246 90.4167 16.6699 91.3819 17.2406C92.3471 17.8114 93.4603 18.0817 94.5798 18.0172C95.6993 17.9526 96.7742 17.5561 97.6674 16.8782L101.993 13.5694L106.512 19.603L102.187 22.9118C100.987 23.8151 100.192 25.1567 99.9774 26.6438C99.7627 28.1308 100.145 29.6424 101.041 30.8485C101.96 32.0282 103.302 32.8038 104.782 33.0111L110.254 33.7896L109.151 41.2289Z" fill="#C481B6"/>
<path d="M81.5561 18.392C78.562 18.392 75.6353 19.2799 73.1458 20.9433C70.6564 22.6067 68.716 24.9709 67.5703 27.737C66.4245 30.5032 66.1248 33.5469 66.7089 36.4834C67.293 39.4199 68.7347 42.1173 70.8518 44.2344C72.9689 46.3515 75.6662 47.7933 78.6027 48.3774C81.5392 48.9615 84.583 48.6617 87.3491 47.5159C90.1153 46.3702 92.4796 44.4299 94.143 41.9404C95.8064 39.451 96.6942 36.5242 96.6942 33.5301C96.6942 29.5152 95.0993 25.6648 92.2604 22.8259C89.4214 19.9869 85.5709 18.392 81.5561 18.392V18.392ZM81.5561 44.7972C79.313 44.8015 77.1191 44.14 75.2523 42.8964C73.3855 41.6529 71.9297 39.8833 71.0693 37.8118C70.2089 35.7403 69.9827 33.46 70.4192 31.2598C70.8558 29.0596 71.9355 27.0385 73.5216 25.4524C75.1077 23.8663 77.1289 22.7866 79.3291 22.35C81.5293 21.9135 83.8094 22.1397 85.881 23.0001C87.9525 23.8604 89.7221 25.3162 90.9656 27.1831C92.2092 29.0499 92.8706 31.2438 92.8664 33.4869C92.8664 36.4866 91.6748 39.3634 89.5537 41.4845C87.4326 43.6056 84.5557 44.7972 81.5561 44.7972V44.7972Z" fill="#C481B6"/>
<path d="M59.3896 83.8752H55.6267V89.5196H59.3896V83.8752Z" fill="#C481B6"/>
<path d="M49.2469 65.3633C45.3506 63.8331 41.9547 61.2527 39.4365 57.9088C36.9183 54.5649 35.3764 50.5884 34.9821 46.4209C34.5877 42.2535 35.3564 38.0583 37.2027 34.3014C39.049 30.5445 41.9005 27.373 45.4407 25.1392L43.4079 21.9601C39.2753 24.5667 35.9469 28.2688 33.7931 32.6545C31.6394 37.0402 30.7447 41.9375 31.2087 46.8014C31.6727 51.6654 33.4771 56.3052 36.4212 60.2046C39.3653 64.104 43.3336 67.1101 47.8845 68.8883C50.1555 69.7588 52.1091 71.2975 53.4875 73.3014C54.8658 75.3052 55.6042 77.68 55.6049 80.1121H59.3895C59.3876 76.9167 58.4174 73.7969 56.6068 71.164C54.7961 68.531 52.23 66.5086 49.2469 65.3633" fill="#C481B6"/>
<path d="M106.534 70.6832H93.3203V74.4461H106.534V70.6832Z" fill="#C481B6"/>
<path d="M92.6731 80.5501L90.2634 83.4402L101.575 92.8712L103.984 89.981L92.6731 80.5501Z" fill="#C481B6"/>
<path d="M85.7729 85.7565H82.01V98.9483H85.7729V85.7565Z" fill="#C481B6"/>
<path d="M17.4411 29.2646L2.35596 33.0341L3.26819 36.6847L18.3534 32.9152L17.4411 29.2646Z" fill="#C481B6"/>
<path d="M7.62485 10.6398L5.43652 13.7009L18.6311 23.1334L20.8194 20.0723L7.62485 10.6398Z" fill="#C481B6"/>
<path d="M25.2957 0.488568L21.6504 1.42181L25.5121 16.506L29.1574 15.5727L25.2957 0.488568Z" fill="#C481B6"/>
</svg>
