<svg width="1154" height="71" viewBox="0 0 1154 71" fill="none" xmlns="http://www.w3.org/2000/svg">
<path d="M38.3325 33.84C38.1732 33.84 38.0155 33.8714 37.8684 33.9326C37.7214 33.9937 37.5879 34.0833 37.4755 34.1961C37.3631 34.309 37.274 34.443 37.2135 34.5904C37.1531 34.7377 37.1223 34.8956 37.1231 35.0549C37.1223 35.2139 37.1533 35.3714 37.2138 35.5185C37.2743 35.6655 37.3633 35.7992 37.4758 35.9116C37.5882 36.0241 37.7217 36.1131 37.8687 36.1736C38.0158 36.2341 38.1735 36.2649 38.3325 36.2642C38.4918 36.2649 38.6495 36.2342 38.7969 36.1737C38.9442 36.1133 39.0783 36.0243 39.1912 35.9119C39.3041 35.7995 39.3936 35.666 39.4548 35.519C39.5159 35.3719 39.5474 35.2141 39.5474 35.0549C39.5474 34.7327 39.4193 34.4236 39.1914 34.1958C38.9636 33.968 38.6547 33.84 38.3325 33.84" fill="white" fill-opacity="0.6"/>
<path d="M12.3915 47.1596L0.259256 62.4415C0.118581 62.6206 0.0312475 62.8357 0.0069477 63.0622C-0.0173521 63.2886 0.022361 63.5174 0.121828 63.7223C0.219876 63.9302 0.375679 64.1055 0.570615 64.2273C0.76555 64.3492 0.99139 64.4124 1.22125 64.4094H60.9087C61.1383 64.411 61.3636 64.3474 61.5583 64.2257C61.753 64.104 61.909 63.9293 62.0082 63.7223C62.1062 63.5167 62.1448 63.2879 62.1196 63.0615C62.0943 62.8351 62.0063 62.6204 61.8654 62.4415L49.7331 47.1596C49.6199 47.0156 49.4756 46.8992 49.3109 46.8192C49.1462 46.7392 48.9653 46.6977 48.7821 46.6978H38.1618L47.232 32.4713C49.3604 29.2858 50.4932 25.5392 50.4863 21.708C50.4805 16.5619 48.4337 11.6282 44.7949 7.98929C41.156 4.35042 36.2221 2.30355 31.076 2.29773C25.9299 2.30355 20.9963 4.35042 17.3574 7.98929C13.7186 11.6282 11.6715 16.5619 11.6657 21.708C11.6615 25.5388 12.7942 29.2846 14.9202 32.4713L23.9904 46.6978H13.3645C13.1816 46.6989 13.0011 46.741 12.8365 46.8209C12.672 46.9008 12.5275 47.0165 12.4135 47.1596H12.3915ZM7.88943 56.7685H15.2225L11.0833 61.9852H3.7446L7.88943 56.7685ZM25.5405 49.1275L28.8662 54.3388H20.2469L24.3861 49.1275H25.5405ZM36.6171 49.1275H37.7716L41.9108 54.3388H33.2695L36.6171 49.1275ZM43.8347 56.7685L47.9742 61.9852H14.1781L18.3229 56.7685H43.8347ZM51.0746 61.9852L46.9298 56.7685H54.2682L58.4077 61.9852H51.0746ZM52.3442 54.3388H45.0112L40.8664 49.1275H48.205L52.3442 54.3388ZM16.943 31.13C15.0805 28.3412 14.0895 25.0616 14.0957 21.708C14.1015 17.2058 15.8919 12.8895 19.075 9.70545C22.258 6.52137 26.5738 4.72924 31.076 4.72197C35.5792 4.72779 39.8963 6.51927 43.0805 9.70351C46.2647 12.8877 48.0562 17.2048 48.062 21.708C48.0662 25.0621 47.0731 28.3417 45.209 31.13V31.13L31.087 53.2778C29.5478 50.8536 18.5428 33.5982 16.9706 31.13H16.943ZM21.2856 49.1275L17.1464 54.3388H9.81341L13.9526 49.1275H21.2856Z" fill="white" fill-opacity="0.6"/>
<path d="M31.0544 33.84C34.272 33.84 37.3579 32.5618 39.6331 30.2866C41.9083 28.0114 43.1866 24.9256 43.1866 21.7079C43.1837 18.4912 41.9045 15.4071 39.6299 13.1325C37.3553 10.8579 34.2711 9.57872 31.0544 9.57581C27.8386 9.58017 24.756 10.86 22.4826 13.1344C20.2092 15.4088 18.9306 18.4921 18.9277 21.7079C18.9277 24.9246 20.2054 28.0096 22.4794 30.2847C24.7534 32.5597 27.8377 33.8385 31.0544 33.84ZM31.0544 12.0055C33.6276 12.007 36.0954 13.0295 37.9155 14.8486C39.7356 16.6677 40.7594 19.1346 40.7623 21.7079C40.7609 24.2822 39.7377 26.7506 37.9174 28.5708C36.0971 30.3911 33.6286 31.4144 31.0544 31.4158C28.4806 31.4144 26.0128 30.3909 24.1935 28.5705C22.3741 26.7501 21.352 24.2817 21.352 21.7079C21.3549 19.1356 22.378 16.6694 24.1969 14.8505C26.0159 13.0316 28.482 12.0085 31.0544 12.0055V12.0055Z" fill="white" fill-opacity="0.6"/>
<path d="M36.1666 37.9793C35.8924 37.8187 35.566 37.772 35.2577 37.849C34.9494 37.9261 34.6838 38.1209 34.5174 38.3916L30.0317 45.8292C29.8711 46.1034 29.8245 46.4296 29.9015 46.7379C29.9786 47.0461 30.1733 47.312 30.444 47.4783C30.7179 47.6404 31.0444 47.688 31.3531 47.6108C31.6618 47.5336 31.9278 47.3379 32.0931 47.0661L36.5789 39.6285C36.7395 39.3543 36.7861 39.0281 36.709 38.7198C36.632 38.4115 36.4373 38.1457 36.1666 37.9793Z" fill="white" fill-opacity="0.6"/>
<path d="M181.723 17.1125C178.089 17.1125 175.126 13.8967 175.126 9.96629C175.126 6.03587 178.078 2.82007 181.723 2.82007C185.368 2.82007 188.319 6.03587 188.319 9.96629C188.319 13.8967 185.368 17.1125 181.723 17.1125ZM181.723 5.16734C179.299 5.16734 177.325 7.31117 177.325 9.94428C177.325 12.5774 179.293 14.7213 181.723 14.7213C184.153 14.7213 186.121 12.5774 186.121 9.94428C186.121 7.31117 184.142 5.16734 181.723 5.16734Z" fill="white" fill-opacity="0.6"/>
<path d="M161.51 15.9636H133.227C132.923 15.9507 132.637 15.8179 132.431 15.5943C132.225 15.3707 132.116 15.0746 132.128 14.7707C132.128 10.6424 135.272 7.28915 139.087 7.41558C139.819 6.03234 140.909 4.87157 142.244 4.05519C143.579 3.23881 145.109 2.79693 146.673 2.776C147.966 2.79 149.239 3.09359 150.398 3.66438C151.558 4.23517 152.574 5.05863 153.374 6.07426C153.962 5.91568 154.568 5.83622 155.177 5.83792C159.294 5.83792 162.647 9.48801 162.647 13.9681C162.647 14.273 162.631 14.5775 162.598 14.8806C162.58 15.1628 162.458 15.4281 162.254 15.6245C162.051 15.8208 161.781 15.9339 161.499 15.9416L161.51 15.9636ZM134.447 13.5504H160.443C160.245 10.5819 157.958 8.22914 155.182 8.22914C154.559 8.22808 153.942 8.34561 153.363 8.57546C153.137 8.66492 152.886 8.67208 152.655 8.59573C152.424 8.51938 152.227 8.36436 152.099 8.15768C151.514 7.24775 150.712 6.49662 149.767 5.97105C148.821 5.44549 147.76 5.16181 146.678 5.14528C145.396 5.16377 144.147 5.55581 143.083 6.27342C142.02 6.99103 141.189 8.00306 140.692 9.18563C140.597 9.4025 140.434 9.58283 140.228 9.69971C140.022 9.81659 139.784 9.8638 139.549 9.83432C139.331 9.79692 139.11 9.77854 138.889 9.77936C137.826 9.81446 136.807 10.2119 136.002 10.9058C135.196 11.5997 134.651 12.5484 134.459 13.5943L134.447 13.5504Z" fill="white" fill-opacity="0.6"/>
<path d="M181.227 58.7476C181.156 58.7558 181.085 58.7558 181.013 58.7476C180.942 58.7315 180.872 58.7094 180.804 58.6817C180.739 58.6504 180.677 58.6136 180.618 58.5717C180.558 58.5281 180.502 58.4784 180.453 58.4233C180.399 58.3691 180.353 58.3081 180.315 58.2419C180.277 58.175 180.243 58.1051 180.216 58.033C180.186 57.9622 180.164 57.8885 180.15 57.8131C180.145 57.7344 180.145 57.6555 180.15 57.5768C180.145 57.4999 180.145 57.4227 180.15 57.3459C180.164 57.2685 180.186 57.193 180.216 57.1205C180.242 57.0497 180.276 56.9816 180.315 56.9171C180.353 56.8492 180.399 56.7864 180.453 56.7302C180.503 56.6768 180.558 56.6289 180.618 56.5873C180.675 56.5434 180.738 56.5065 180.804 56.4773C180.871 56.4454 180.941 56.4214 181.013 56.4059C181.154 56.3728 181.301 56.3728 181.442 56.4059C181.513 56.4214 181.581 56.4454 181.646 56.4773C181.714 56.5065 181.778 56.5433 181.838 56.5873C181.898 56.6289 181.953 56.6768 182.003 56.7302C182.055 56.7878 182.101 56.8504 182.14 56.9171C182.18 56.9816 182.213 57.0497 182.239 57.1205C182.267 57.1938 182.289 57.2691 182.305 57.3459C182.31 57.4227 182.31 57.4999 182.305 57.5768C182.31 57.6555 182.31 57.7344 182.305 57.8131C182.288 57.8878 182.266 57.9613 182.239 58.033C182.212 58.1051 182.179 58.175 182.14 58.2419C182.101 58.3069 182.055 58.3678 182.003 58.4233C181.953 58.4784 181.898 58.5281 181.838 58.5717C181.777 58.6136 181.713 58.6504 181.646 58.6817C181.58 58.7094 181.512 58.7315 181.442 58.7476C181.371 58.7558 181.299 58.7558 181.227 58.7476" fill="white" fill-opacity="0.6"/>
<path d="M187.209 51.178H185.18V37.8751L185.51 38.1389C185.693 38.289 185.922 38.3706 186.159 38.3698C186.332 38.3697 186.503 38.3242 186.653 38.2378C186.839 38.1294 186.992 37.9734 187.098 37.786C187.203 37.5985 187.256 37.3864 187.252 37.1714V30.6354C187.254 30.4512 187.216 30.2688 187.139 30.1015C187.062 29.9342 186.949 29.7861 186.807 29.6679L171.8 17.6733C171.618 17.5212 171.389 17.4379 171.152 17.4379C170.915 17.4379 170.685 17.5212 170.503 17.6733L163.906 22.945L160.866 20.5097C160.682 20.3602 160.452 20.2786 160.215 20.2786C159.978 20.2786 159.748 20.3602 159.564 20.5097L156.529 22.945L149.933 17.6733C149.751 17.5212 149.521 17.4379 149.284 17.4379C149.047 17.4379 148.817 17.5212 148.635 17.6733L133.628 29.6679C133.487 29.7861 133.374 29.9342 133.297 30.1015C133.22 30.2688 133.181 30.4512 133.183 30.6354V37.1714C133.179 37.3864 133.233 37.5985 133.338 37.786C133.443 37.9734 133.597 38.1294 133.782 38.2378C133.935 38.3235 134.107 38.3689 134.283 38.3698C134.519 38.3688 134.747 38.2874 134.931 38.1389L135.261 37.8751V51.178H133.227C132.923 51.1909 132.637 51.3237 132.431 51.5473C132.225 51.7709 132.116 52.0671 132.128 52.3709V62.7384C132.116 63.0423 132.225 63.3385 132.431 63.5621C132.637 63.7857 132.923 63.9184 133.227 63.9313H187.209C187.36 63.9256 187.507 63.8902 187.644 63.8271C187.781 63.764 187.904 63.6745 188.007 63.5636C188.109 63.4527 188.188 63.3227 188.24 63.1811C188.291 63.0395 188.315 62.8891 188.308 62.7384V52.3709C188.315 52.2203 188.291 52.0698 188.24 51.9282C188.188 51.7866 188.109 51.6566 188.007 51.5458C187.904 51.4349 187.781 51.3453 187.644 51.2822C187.507 51.2191 187.36 51.1837 187.209 51.178V51.178ZM182.981 36.1325V51.1945H174.241V40.7501L174.571 41.0084H174.615H174.648H174.686C174.811 41.0666 174.946 41.0995 175.084 41.1052C175.222 41.1108 175.36 41.0892 175.489 41.0414V41.0414H175.544H175.61C175.795 40.933 175.949 40.777 176.054 40.5895C176.159 40.4021 176.213 40.1899 176.209 39.9749V33.4334C176.211 33.2494 176.172 33.0674 176.094 32.9008C176.016 32.7342 175.901 32.5874 175.758 32.4714L169.739 27.6559L171.036 26.617L182.981 36.1325ZM162.708 56.3783H157.727V49.232H162.708V56.3783ZM163.808 46.8628H156.661C156.357 46.8757 156.071 47.0084 155.865 47.232C155.659 47.4556 155.55 47.7518 155.562 48.0557V56.3783H148.416V38.9745L160.251 29.514L172.081 38.9745V56.3783H164.934V48.0557C164.943 47.901 164.921 47.7461 164.868 47.6004C164.815 47.4547 164.733 47.3213 164.627 47.2082C164.521 47.0951 164.394 47.0047 164.252 46.9425C164.11 46.8803 163.957 46.8475 163.802 46.8463L163.808 46.8628ZM171.152 20.1304L185.065 31.2566V34.8297L171.8 24.2258C171.633 24.0886 171.426 24.0083 171.209 23.9965C170.993 23.9846 170.778 24.0418 170.596 24.1598L170.503 24.2258L168.002 26.2322L165.764 24.4402L171.152 20.1304ZM160.223 22.9725L174.131 34.0931V37.6717L173.801 37.4078L160.872 27.0678L160.779 27.0018C160.614 26.8977 160.424 26.8424 160.229 26.8424C160.034 26.8424 159.844 26.8977 159.679 27.0018L159.586 27.0678L146.662 37.4078L146.332 37.6717V34.0931L160.223 22.9725ZM135.382 31.2566L149.29 20.1304L154.677 24.4402L152.445 26.2322L149.938 24.2258C149.755 24.0767 149.526 23.9953 149.29 23.9953C149.053 23.9953 148.824 24.0767 148.641 24.2258L135.382 34.8297V31.2566ZM137.46 36.1325L149.29 26.672L150.592 27.711L144.546 32.5264C144.32 32.7212 144.172 32.9903 144.128 33.285C144.128 33.285 144.128 33.285 144.128 33.3235V33.3564C144.125 33.3967 144.125 33.4371 144.128 33.4774V40.0189C144.124 40.2339 144.177 40.4461 144.283 40.6335C144.388 40.8209 144.541 40.9769 144.727 41.0854C144.848 41.1495 144.981 41.1887 145.117 41.2008C145.384 41.223 145.648 41.1402 145.854 40.97L146.184 40.7115V51.156H137.449L137.46 36.1325ZM146.195 56.3783H134.327V53.5803H146.195V56.3783ZM186.115 61.5621H134.327V58.764H176.792C176.942 58.7584 177.09 58.7229 177.227 58.6598C177.364 58.5967 177.487 58.5072 177.589 58.3963C177.692 58.2855 177.771 58.1555 177.822 58.0138C177.874 57.8722 177.898 57.7218 177.891 57.5712C177.898 57.4205 177.874 57.2701 177.822 57.1285C177.771 56.9869 177.692 56.8569 177.589 56.746C177.487 56.6351 177.364 56.5456 177.227 56.4825C177.09 56.4194 176.942 56.3839 176.792 56.3783H174.247V53.5803H186.115V61.5621Z" fill="white" fill-opacity="0.6"/>
<path d="M160.218 44.3397C157.601 44.3397 155.469 42.0199 155.469 39.1724C155.469 36.3249 157.601 34.0051 160.218 34.0051C162.835 34.0051 164.962 36.3249 164.962 39.1724C164.962 42.0199 162.835 44.3397 160.218 44.3397ZM160.218 36.3908C159.511 36.4223 158.845 36.7326 158.366 37.2539C157.887 37.7752 157.634 38.465 157.662 39.1724C157.634 39.8798 157.887 40.5696 158.366 41.0909C158.845 41.6122 159.511 41.9225 160.218 41.9539C160.925 41.9211 161.59 41.6104 162.069 41.0894C162.548 40.5685 162.801 39.8794 162.774 39.1724C162.801 38.4654 162.548 37.7764 162.069 37.2554C161.59 36.7344 160.925 36.4237 160.218 36.3908V36.3908Z" fill="white" fill-opacity="0.6"/>
<path d="M317.693 61.7213H310.574V49.6277C315.06 49.1275 318.579 44.8892 318.579 39.733C318.579 34.6756 315.176 30.4923 310.795 29.8821C311.686 28.7689 312.271 27.4427 312.493 26.0342C312.512 25.9201 312.508 25.8035 312.482 25.6909C312.456 25.5783 312.408 25.4719 312.34 25.378C312.273 25.284 312.188 25.2043 312.089 25.1434C311.991 25.0824 311.881 25.0414 311.767 25.0227C311.652 25.0031 311.535 25.0066 311.422 25.0328C311.308 25.059 311.201 25.1076 311.106 25.1756C311.011 25.2436 310.931 25.3298 310.87 25.429C310.809 25.5283 310.769 25.6387 310.751 25.7538C310.565 26.9025 310.076 27.9806 309.334 28.8766C308.592 29.7726 307.623 30.4538 306.529 30.8496C306.272 30.9482 306.044 31.1095 305.865 31.3188C305.687 31.5281 305.563 31.7788 305.506 32.048C305.341 32.9001 304.748 34.9835 302.758 35.94C302.12 36.224 301.431 36.3758 300.733 36.3862C300.035 36.3966 299.342 36.2653 298.696 36.0004C297.798 35.6385 297.012 35.0448 296.419 34.2798V30.4649L300.267 26.6169C300.431 26.4513 300.522 26.2282 300.522 25.9957C300.522 25.7633 300.431 25.5401 300.267 25.3746C300.186 25.2923 300.089 25.227 299.982 25.1824C299.875 25.1379 299.76 25.1149 299.644 25.1149C299.528 25.1149 299.413 25.1379 299.306 25.1824C299.199 25.227 299.102 25.2923 299.02 25.3746L296.403 27.9802V22.1368C296.404 22.0208 296.382 21.9058 296.338 21.7985C296.294 21.6911 296.229 21.5935 296.147 21.5113C296.066 21.429 295.969 21.3637 295.862 21.3192C295.755 21.2746 295.639 21.2517 295.524 21.2517C295.289 21.2532 295.065 21.3468 294.899 21.5125C294.734 21.6782 294.64 21.9025 294.639 22.1368V26.287L292.033 23.6759C291.867 23.5124 291.643 23.4208 291.409 23.4208C291.176 23.4208 290.951 23.5124 290.785 23.6759C290.703 23.7581 290.637 23.8558 290.593 23.9634C290.548 24.0709 290.525 24.1861 290.525 24.3026C290.525 24.419 290.548 24.5343 290.593 24.6419C290.637 24.7494 290.703 24.847 290.785 24.9293L294.633 28.7772V34.2743C294.046 35.0408 293.264 35.6351 292.369 35.9949C291.722 36.26 291.027 36.3913 290.328 36.3809C289.629 36.3705 288.939 36.2186 288.301 35.9344C287.456 35.5189 286.755 34.8603 286.288 34.0434C286.442 30.1405 285.316 24.44 283.645 18.9759C283.87 18.8505 284.103 18.7403 284.343 18.6461C284.724 18.497 285.045 18.2256 285.256 17.8746C285.467 17.5235 285.556 17.1124 285.508 16.7056C285.488 16.5525 285.479 16.3983 285.481 16.2439C285.478 15.3755 285.767 14.5315 286.301 13.8468C286.836 13.1622 287.584 12.6764 288.427 12.4673C288.835 12.3671 289.198 12.1318 289.457 11.7996C289.715 11.4674 289.854 11.0577 289.851 10.6368C289.852 9.13363 290.449 7.69235 291.512 6.62893C292.574 5.56551 294.015 4.96674 295.518 4.96383C296.264 4.96455 297.002 5.11215 297.691 5.39819C298.379 5.68423 299.005 6.10307 299.532 6.63088C300.059 7.15869 300.476 7.78511 300.761 8.47434C301.045 9.16356 301.192 9.9021 301.191 10.6478C301.188 11.0673 301.327 11.4754 301.586 11.8057C301.844 12.1361 302.207 12.3693 302.615 12.4673C303.533 12.6985 304.336 13.2562 304.873 14.0362C305.411 14.8162 305.645 15.7651 305.534 16.7056C305.486 17.1117 305.574 17.5223 305.783 17.8733C305.993 18.2243 306.313 18.496 306.694 18.6461C307.515 18.9695 308.262 19.4557 308.89 20.0755C309.518 20.6952 310.015 21.4356 310.35 22.2522C310.44 22.4684 310.611 22.6405 310.827 22.7311C311.043 22.8216 311.286 22.8234 311.504 22.7359C311.719 22.6459 311.889 22.4748 311.979 22.2598C312.068 22.0447 312.07 21.8029 311.982 21.587C311.558 20.5497 310.928 19.6088 310.131 18.821C309.333 18.0331 308.385 17.4145 307.342 17.0024C307.326 16.9952 307.313 16.9837 307.303 16.9691C307.293 16.9546 307.288 16.9375 307.288 16.92C307.453 15.5506 307.111 14.168 306.327 13.0329C305.543 11.8979 304.372 11.0886 303.033 10.7577C303.008 10.7492 302.987 10.7326 302.973 10.7107C302.959 10.6887 302.953 10.6627 302.956 10.6368C302.953 8.66513 302.168 6.77506 300.774 5.38088C299.38 3.98669 297.49 3.20213 295.518 3.19922C293.545 3.20213 291.654 3.98839 290.26 5.38511C288.867 6.78183 288.085 8.67474 288.086 10.6478C288.087 10.6728 288.079 10.6973 288.064 10.7173C288.049 10.7372 288.028 10.7515 288.004 10.7577C286.776 11.0608 285.686 11.7676 284.909 12.7644C284.131 13.7613 283.711 14.9906 283.716 16.2548C283.715 16.4808 283.728 16.7066 283.754 16.931C283.754 17.0849 283.204 17.2113 283.089 17.2828C282.869 16.6341 282.638 15.9965 282.402 15.3753C278.62 5.32111 274.827 3.21022 272.31 3.21022C267.912 3.21022 264.558 9.39999 262.514 14.5893C262.427 14.8072 262.43 15.0506 262.523 15.2661C262.616 15.4815 262.791 15.6513 263.009 15.7381C263.117 15.7809 263.232 15.8018 263.349 15.7998C263.465 15.7978 263.58 15.7728 263.687 15.7263C263.793 15.6798 263.89 15.6128 263.971 15.529C264.051 15.4451 264.115 15.3462 264.157 15.2379C266.724 8.71832 269.698 4.97484 272.31 4.97484C275.058 4.97484 278.12 8.99317 280.753 15.9965C283.243 22.593 284.535 29.7392 284.535 33.3453C284.535 40.6015 279.527 46.5714 273.194 47.0881V39.9419V36.5721L276.877 32.889C276.96 32.8068 277.025 32.7092 277.07 32.6016C277.115 32.4941 277.138 32.3788 277.138 32.2624C277.138 32.1459 277.115 32.0307 277.07 31.9232C277.025 31.8156 276.96 31.718 276.877 31.6358C276.711 31.4723 276.487 31.3806 276.254 31.3806C276.02 31.3806 275.796 31.4723 275.63 31.6358L273.194 34.0764V30.3824C273.194 30.1477 273.101 29.9226 272.935 29.7566C272.77 29.5906 272.544 29.4974 272.31 29.4974C272.076 29.4988 271.852 29.5927 271.687 29.7585C271.523 29.9243 271.43 30.1486 271.43 30.3824V36.2038V37.8145L268.989 35.3792C268.908 35.2971 268.811 35.2319 268.705 35.1875C268.598 35.143 268.484 35.1201 268.368 35.1201C268.253 35.1201 268.138 35.143 268.032 35.1875C267.925 35.2319 267.828 35.2971 267.747 35.3792C267.665 35.461 267.599 35.5582 267.555 35.6653C267.51 35.7724 267.487 35.8872 267.487 36.0032C267.487 36.1191 267.51 36.234 267.555 36.341C267.599 36.4481 267.665 36.5453 267.747 36.6271L271.43 40.3101V47.132C265.092 46.6208 260.079 40.651 260.079 33.3893C260.079 29.9756 261.178 24.2311 262.827 19.0968C262.896 18.8781 262.876 18.6412 262.774 18.4361C262.671 18.2311 262.494 18.0738 262.277 17.9974C262.059 17.9302 261.822 17.9498 261.618 18.0522C261.413 18.1545 261.255 18.3318 261.178 18.5471C259.468 23.9288 258.363 29.7557 258.363 33.3893C258.363 41.6349 264.174 48.3908 271.48 48.8966V61.7433H259.205C259.088 61.7433 258.973 61.7662 258.866 61.8107C258.758 61.8551 258.661 61.9203 258.579 62.0025C258.496 62.0847 258.431 62.1823 258.386 62.2896C258.342 62.397 258.319 62.5121 258.319 62.6283C258.319 62.7443 258.342 62.8591 258.387 62.9662C258.432 63.0732 258.496 63.1705 258.579 63.2522C258.661 63.334 258.758 63.3987 258.866 63.4425C258.973 63.4864 259.089 63.5086 259.205 63.5079H317.693C317.809 63.5086 317.924 63.4864 318.032 63.4425C318.139 63.3987 318.236 63.334 318.319 63.2522C318.401 63.1705 318.466 63.0732 318.511 62.9662C318.555 62.8591 318.579 62.7443 318.579 62.6283C318.579 62.5121 318.555 62.397 318.511 62.2896C318.466 62.1823 318.401 62.0847 318.319 62.0025C318.237 61.9203 318.139 61.8551 318.032 61.8107C317.925 61.7662 317.81 61.7433 317.693 61.7433V61.7213ZM294.639 61.7433H273.2V48.8966C279.544 48.4568 284.744 43.2951 286.019 36.5501C286.473 36.9655 286.987 37.3119 287.542 37.5781C288.402 37.9693 289.334 38.1814 290.279 38.2012C291.224 38.221 292.163 38.0483 293.039 37.6935C293.617 37.4652 294.161 37.1582 294.655 36.781L294.639 61.7433ZM308.81 61.7433H296.403V36.781C296.91 37.1576 297.464 37.4644 298.052 37.6935C298.909 38.0278 299.821 38.2012 300.74 38.2048C300.823 38.7263 300.855 39.2547 300.834 39.7824C300.834 44.9332 304.346 49.1715 308.832 49.6772L308.81 61.7433ZM309.695 39.2052C309.461 39.2052 309.237 39.2977 309.071 39.4625C308.906 39.6273 308.811 39.851 308.81 40.0848V47.9181C305.303 47.4179 302.576 43.9712 302.576 39.8099C302.577 39.1693 302.641 38.5302 302.769 37.9024C305.474 37.0009 307.024 33.8345 307.221 32.5537C307.815 32.3336 308.382 32.0459 308.909 31.6962C313.191 31.1465 316.814 35.033 316.814 39.8099C316.814 43.9712 314.065 47.4179 310.574 47.9181V45.307L313.362 42.5145C313.444 42.4327 313.509 42.3355 313.554 42.2285C313.598 42.1214 313.622 42.0065 313.622 41.8905C313.622 41.7746 313.598 41.6597 313.554 41.5527C313.509 41.4456 313.444 41.3484 313.362 41.2666C313.28 41.1845 313.184 41.1194 313.077 41.0749C312.971 41.0304 312.856 41.0075 312.741 41.0075C312.625 41.0075 312.511 41.0304 312.404 41.0749C312.297 41.1194 312.201 41.1845 312.119 41.2666L310.574 42.8058V40.0573C310.577 39.9399 310.557 39.8232 310.514 39.7139C310.471 39.6046 310.407 39.5051 310.325 39.4211C310.243 39.3371 310.145 39.2703 310.037 39.2247C309.929 39.1792 309.813 39.1557 309.695 39.1557V39.2052Z" fill="white" fill-opacity="0.6"/>
<path d="M454.626 45.1476C454.635 40.4552 453.112 35.888 450.291 32.1383C447.47 28.3887 443.503 25.661 438.992 24.3686C438.443 10.8347 427.339 0 413.799 0C399.892 0 388.579 11.4284 388.579 25.4735C388.571 30.023 389.778 34.492 392.075 38.4192L388.672 50.8481L400.98 47.4124C404.537 49.5366 408.566 50.7418 412.705 50.9196C413.939 55.4364 416.618 59.4249 420.333 62.2758C424.047 65.1267 428.593 66.6831 433.275 66.7072C437.102 66.7109 440.859 65.6754 444.143 63.7113L454.538 66.6138L451.658 56.1198C453.61 52.7854 454.635 48.9895 454.626 45.1256V45.1476ZM401.59 43.1632L394.219 45.2191L396.258 37.7815L395.796 37.0449C393.602 33.5768 392.441 29.5555 392.449 25.4515C392.427 19.7625 394.662 14.2971 398.665 10.2542C402.668 6.21141 408.11 3.92131 413.799 3.88642C419.487 3.92276 424.929 6.21351 428.93 10.2562C432.932 14.2989 435.166 19.7634 435.145 25.4515C435.166 31.1391 432.931 36.6032 428.93 40.645C424.928 44.6868 419.487 46.9763 413.799 47.0112C409.725 47.0166 405.737 45.8424 402.316 43.6304L401.59 43.1632ZM448.986 60.9847L443.489 59.462L442.758 59.9403C439.932 61.7928 436.627 62.7787 433.248 62.7768C429.575 62.7604 426.001 61.5913 423.028 59.4343C420.055 57.2772 417.835 54.2412 416.68 50.7547C422.346 50.0678 427.616 47.4921 431.64 43.443C435.663 39.3938 438.205 34.1073 438.855 28.4365C442.336 29.6386 445.355 31.8977 447.491 34.8985C449.627 37.8993 450.772 41.492 450.767 45.1751C450.772 48.5803 449.795 51.9148 447.953 54.7786L447.474 55.5152L448.986 60.9847Z" fill="white" fill-opacity="0.6"/>
<path d="M739.341 59.4803H733.223C732.604 59.4972 731.993 59.335 731.464 59.0131C729.611 57.8697 728.133 54.1922 727.253 51.9988L726.951 51.2567C725.5 47.6946 723.691 43.2639 720.101 40.9771C718.48 39.9437 716.593 39.405 714.67 39.427H712.268V29.2793C712.688 29.2796 713.103 29.1972 713.491 29.0368C713.879 28.8765 714.231 28.6413 714.528 28.3448C715.129 27.7443 715.467 26.9297 715.468 26.08C715.469 25.6574 715.386 25.2388 715.225 24.8482C715.064 24.4577 714.827 24.1028 714.528 23.8042L707.882 17.2077C707.799 17.1244 707.701 17.0583 707.593 17.0132C707.485 16.9681 707.369 16.9448 707.252 16.9448C707.135 16.9448 707.019 16.9681 706.911 17.0132C706.803 17.0583 706.705 17.1244 706.623 17.2077C706.54 17.29 706.473 17.388 706.428 17.4961C706.383 17.6041 706.36 17.72 706.36 17.8371C706.36 17.9542 706.383 18.0701 706.428 18.1782C706.473 18.2862 706.54 18.3842 706.623 18.4665L713.263 25.063C713.396 25.1947 713.501 25.3514 713.573 25.5241C713.645 25.6968 713.681 25.882 713.681 26.069C713.68 26.4463 713.53 26.808 713.263 27.075C712.996 27.3415 712.635 27.4912 712.257 27.4912C711.88 27.4912 711.518 27.3415 711.251 27.075L698.355 14.1843C698.188 14.0174 697.962 13.9237 697.725 13.9237C697.489 13.9237 697.263 14.0174 697.096 14.1843L684.206 27.0805C684.074 27.2135 683.917 27.3189 683.744 27.3907C683.572 27.4624 683.387 27.499 683.199 27.4983C683.013 27.4986 682.829 27.4617 682.657 27.39C682.486 27.3183 682.33 27.2131 682.199 27.0805C682.066 26.949 681.961 26.7923 681.889 26.6196C681.817 26.4468 681.78 26.2615 681.781 26.0745C681.781 25.8875 681.817 25.7023 681.889 25.5296C681.961 25.3569 682.066 25.2002 682.199 25.0685L696.728 10.5342C696.996 10.2691 697.357 10.1209 697.734 10.1219C698.111 10.1209 698.472 10.2691 698.74 10.5342L703.89 15.685C704.057 15.8518 704.284 15.9455 704.52 15.9455C704.756 15.9455 704.982 15.8518 705.149 15.685C705.316 15.518 705.41 15.2917 705.41 15.0556C705.41 14.8196 705.316 14.5932 705.149 14.4262L700.004 9.2754C699.706 8.97733 699.352 8.74122 698.962 8.58082C698.573 8.42041 698.155 8.33886 697.734 8.34086V8.34086C697.313 8.33898 696.897 8.42067 696.508 8.58109C696.119 8.7415 695.766 8.9775 695.469 9.2754L680.94 23.8042C680.641 24.1028 680.405 24.4577 680.243 24.8482C680.082 25.2388 679.999 25.6574 680 26.08C679.999 26.4995 680.082 26.9151 680.242 27.3028C680.402 27.6905 680.638 28.0427 680.935 28.3393C681.231 28.6379 681.584 28.8748 681.973 29.0362C682.362 29.1975 682.779 29.2802 683.199 29.2793V64.1584H680.907C680.671 64.1584 680.445 64.2522 680.278 64.4192C680.111 64.5862 680.017 64.8127 680.017 65.0489C680.018 65.2846 680.112 65.5103 680.279 65.677C680.446 65.8437 680.672 65.938 680.907 65.9394H739.402C739.786 65.938 740.154 65.7846 740.426 65.5128C740.698 65.2409 740.852 64.8726 740.853 64.4882V60.9865C740.852 60.5919 740.694 60.2138 740.415 59.9348C740.136 59.6557 739.758 59.4983 739.363 59.4969L739.341 59.4803ZM687.141 64.1584H684.986V45.886H687.141V64.1584ZM693.265 64.1584H688.922V45.886H693.265V64.1584ZM700.411 64.1584H695.024V61.3109H700.411V64.1584ZM700.411 59.5298H695.024V56.1711H700.411V59.5298ZM700.411 54.39H695.024V51.0258H700.411V54.39ZM700.411 49.2448H695.024V45.886H700.411V49.2448ZM702.181 44.0995H693.259V39.7018C693.259 38.5189 693.729 37.3844 694.565 36.5475C695.401 35.7106 696.535 35.2396 697.717 35.2382C698.901 35.2396 700.035 35.7104 700.872 36.5472C701.709 37.3839 702.18 38.5184 702.181 39.7018V44.0995ZM706.535 64.1584H702.198V45.886H706.535V64.1584ZM703.968 44.0995V39.7018C703.966 38.0451 703.307 36.4568 702.135 35.2858C700.963 34.1149 699.374 33.4571 697.717 33.4571C696.062 33.4586 694.474 34.117 693.303 35.2878C692.132 36.4586 691.474 38.0461 691.473 39.7018V44.0995H684.975V28.7626C685.153 28.6455 685.317 28.5091 685.464 28.3558L697.728 16.0972L709.992 28.3558C710.143 28.5079 710.309 28.6442 710.487 28.7626V44.0995H703.995H703.968ZM712.257 64.1584V58.2545C712.257 58.0183 712.163 57.7918 711.996 57.6248C711.829 57.4578 711.603 57.364 711.367 57.364C711.131 57.3654 710.905 57.4597 710.739 57.6264C710.572 57.7931 710.478 58.0188 710.476 58.2545V64.1584H708.316V45.886H710.476V54.1317C710.476 54.3679 710.57 54.5944 710.737 54.7614C710.904 54.9284 711.131 55.0222 711.367 55.0222C711.484 55.0229 711.6 55.0004 711.708 54.9559C711.817 54.9114 711.915 54.8458 711.998 54.763C712.081 54.6802 712.146 54.5817 712.191 54.4733C712.235 54.3649 712.258 54.2488 712.257 54.1317V45.886H714.66C715.355 45.8712 716.04 46.0625 716.628 46.4358C718.513 47.6396 719.926 51.1082 720.849 53.406L721.195 54.2526C722.575 57.6553 724.274 61.8441 727.534 64.1474L712.257 64.1584ZM739.039 64.1584H733.212C731.727 64.1732 730.268 63.7693 729.001 62.993C725.885 61.0635 724.274 57.0781 722.845 53.5655L722.498 52.7189C721.487 50.2122 719.953 46.4248 717.584 44.9185C716.71 44.3652 715.694 44.0804 714.66 44.0995H712.257V41.2245H714.66C716.243 41.2055 717.797 41.6466 719.134 42.4943C722.251 44.4788 723.867 48.4477 725.291 51.9494L725.588 52.6749C726.616 55.2311 728.166 59.0901 730.535 60.5468C731.344 61.0459 732.278 61.3016 733.228 61.2834H739.056L739.039 64.1584Z" fill="white" fill-opacity="0.6"/>
<path d="M720.866 24.1122H733.916C735.749 24.1093 737.506 23.3798 738.802 22.0835C740.099 20.7873 740.828 19.03 740.831 17.1968C740.828 15.3636 740.099 13.6064 738.802 12.3101C737.506 11.0139 735.749 10.2844 733.916 10.2815H733.778C733.085 9.06496 732.084 8.05314 730.874 7.34845C729.665 6.64375 728.291 6.27118 726.891 6.26855C724.791 6.27001 722.778 7.10435 721.293 8.58838C719.808 10.0724 718.972 12.0849 718.969 14.1844C718.969 14.3493 718.969 14.5087 718.969 14.6736C718.072 15.0422 717.305 15.6701 716.766 16.477C716.228 17.2839 715.942 18.2331 715.946 19.2032C715.946 19.8479 716.073 20.4862 716.319 21.0818C716.566 21.6774 716.928 22.2185 717.383 22.6744C717.839 23.1302 718.381 23.4918 718.976 23.7385C719.572 23.9852 720.21 24.1122 720.855 24.1122H720.866ZM720.14 16.1633C720.359 16.112 720.55 15.9798 720.676 15.7932C720.801 15.6066 720.851 15.3794 720.816 15.1574C720.763 14.8358 720.737 14.5103 720.739 14.1844C720.742 12.5573 721.39 10.9978 722.541 9.84777C723.692 8.69775 725.252 8.05113 726.879 8.04968C728.045 8.05233 729.186 8.38657 730.17 9.01341C731.153 9.64026 731.937 10.5338 732.432 11.5898C732.512 11.7578 732.642 11.8968 732.804 11.9874C732.967 12.0781 733.153 12.1159 733.338 12.0955C733.521 12.0747 733.704 12.0636 733.888 12.0625C735.249 12.0654 736.553 12.6073 737.515 13.5695C738.478 14.5318 739.019 15.836 739.022 17.1968C739.021 18.558 738.48 19.8632 737.517 20.8257C736.555 21.7883 735.249 22.3297 733.888 22.3311H720.838C720.427 22.3311 720.021 22.2502 719.641 22.093C719.262 21.9358 718.917 21.7054 718.626 21.415C718.336 21.1245 718.105 20.7797 717.948 20.4002C717.791 20.0207 717.71 19.614 717.71 19.2032C717.71 18.4943 717.952 17.8064 718.395 17.2536C718.839 16.7008 719.459 16.3161 720.151 16.1633H720.14Z" fill="white" fill-opacity="0.6"/>
<path d="M697.728 22.8422C696.677 22.8436 695.67 23.2617 694.927 24.0047C694.184 24.7476 693.766 25.7549 693.765 26.8056C693.768 27.8559 694.186 28.8623 694.929 29.605C695.672 30.3476 696.678 30.7661 697.728 30.769C698.779 30.7675 699.786 30.3495 700.529 29.6065C701.272 28.8635 701.69 27.8563 701.691 26.8056C701.691 26.2851 701.589 25.7697 701.39 25.2889C701.191 24.808 700.899 24.3711 700.531 24.003C700.163 23.635 699.726 23.343 699.245 23.1439C698.764 22.9447 698.249 22.8422 697.728 22.8422V22.8422ZM697.728 28.9879C697.145 28.9879 696.586 28.7563 696.173 28.3439C695.761 27.9315 695.529 27.3723 695.529 26.7891C695.529 26.2059 695.761 25.6466 696.173 25.2343C696.586 24.8219 697.145 24.5903 697.728 24.5903C698.311 24.5903 698.871 24.8219 699.283 25.2343C699.696 25.6466 699.927 26.2059 699.927 26.7891C699.924 27.3704 699.691 27.9268 699.279 28.3368C698.867 28.7468 698.309 28.9769 697.728 28.9769V28.9879Z" fill="white" fill-opacity="0.6"/>
<path d="M839.925 42.7335C836.281 42.7335 832.785 44.1814 830.208 46.7587C827.63 49.336 826.183 52.8315 826.183 56.4763C826.183 58.5214 826.64 60.5405 827.522 62.3858C828.404 64.231 829.687 65.8557 831.278 67.1406C831.337 67.1979 831.402 67.2494 831.471 67.2946C833.879 69.1844 836.853 70.2104 839.914 70.208C842.977 70.2112 845.953 69.1852 848.363 67.2946C848.429 67.2479 848.492 67.1965 848.55 67.1406C850.141 65.8557 851.424 64.231 852.306 62.3858C853.188 60.5405 853.646 58.5214 853.646 56.4763C853.646 52.8315 852.198 49.336 849.621 46.7587C847.044 44.1814 843.548 42.7335 839.903 42.7335H839.925ZM839.903 67.377C837.752 67.384 835.647 66.7506 833.857 65.5575C834.344 64.3568 835.181 63.3304 836.259 62.6118C837.338 61.8933 838.608 61.5156 839.903 61.5281C841.199 61.5164 842.468 61.8943 843.546 62.6128C844.624 63.3313 845.462 64.3572 845.95 65.5575C844.168 66.7533 842.072 67.3941 839.925 67.399L839.903 67.377ZM837.424 56.4653C837.424 55.8704 837.66 55.2999 838.081 54.8793C838.501 54.4587 839.072 54.2225 839.667 54.2225C840.262 54.2225 840.832 54.4587 841.253 54.8793C841.674 55.2999 841.909 55.8704 841.909 56.4653C841.909 57.0601 841.674 57.6306 841.253 58.0512C840.832 58.4718 840.262 58.7081 839.667 58.7081C839.078 58.7023 838.515 58.465 838.099 58.0473C837.684 57.6297 837.449 57.0654 837.446 56.4763L837.424 56.4653ZM848.138 63.6115C847.162 61.7865 845.602 60.3423 843.707 59.5107C844.37 58.6314 844.729 57.5606 844.73 56.4598C844.728 55.1175 844.194 53.8306 843.245 52.8814C842.296 51.9323 841.009 51.3984 839.667 51.3969C838.325 51.3984 837.038 51.9323 836.089 52.8814C835.14 53.8306 834.606 55.1175 834.604 56.4598C834.603 57.6317 835.011 58.7672 835.759 59.6701C834.017 60.522 832.588 61.901 831.674 63.6115C829.945 61.6326 828.991 59.0935 828.991 56.4653C828.994 53.5722 830.145 50.7985 832.191 48.7527C834.236 46.707 837.01 45.5564 839.903 45.5535C841.338 45.5528 842.759 45.8348 844.085 46.3834C845.411 46.932 846.616 47.7365 847.63 48.7508C848.645 49.7651 849.45 50.9695 849.999 52.2951C850.549 53.6206 850.832 55.0414 850.832 56.4763C850.833 59.1027 849.884 61.641 848.16 63.6225L848.138 63.6115Z" fill="white" fill-opacity="0.6"/>
<path d="M817.596 2C813.951 2 810.455 3.44786 807.878 6.02512C805.301 8.60238 803.853 12.0979 803.853 15.7427C803.852 17.788 804.31 19.8074 805.191 21.6528C806.073 23.4982 807.357 25.1227 808.949 26.4071C809.006 26.466 809.071 26.5176 809.141 26.561C811.549 28.4516 814.523 29.4778 817.584 29.4745C820.646 29.4786 823.621 28.4524 826.028 26.561C826.098 26.5176 826.163 26.466 826.221 26.4071C827.812 25.1224 829.095 23.4977 829.976 21.6523C830.856 19.8068 831.313 17.7876 831.311 15.7427C831.311 12.0979 829.863 8.60238 827.286 6.02512C824.709 3.44786 821.213 2 817.568 2H817.596ZM817.568 26.638C815.417 26.644 813.312 26.0107 811.522 24.8184C812.01 23.6186 812.848 22.5931 813.926 21.8747C815.004 21.1563 816.273 20.7781 817.568 20.789C818.864 20.7766 820.133 21.1542 821.212 21.8728C822.29 22.5914 823.128 23.6177 823.615 24.8184C821.833 26.0064 819.738 26.6395 817.596 26.638H817.568ZM815.083 15.7262C815.085 15.1309 815.323 14.5604 815.744 14.14C816.166 13.7195 816.736 13.4834 817.332 13.4834C817.926 13.4834 818.497 13.7197 818.918 14.1403C819.339 14.5609 819.575 15.1314 819.575 15.7262C819.575 16.3211 819.339 16.8915 818.918 17.3121C818.497 17.7328 817.926 17.969 817.332 17.969C816.739 17.9647 816.172 17.7267 815.754 17.3067C815.337 16.8867 815.101 16.3187 815.1 15.7262H815.083ZM825.797 22.8725C824.822 21.0477 823.262 19.6036 821.367 18.7716C822.033 17.8941 822.392 16.8222 822.389 15.7207C822.389 14.3789 821.857 13.092 820.909 12.1427C819.96 11.1934 818.673 10.6594 817.332 10.6579C815.989 10.6594 814.703 11.1932 813.754 12.1424C812.805 13.0915 812.27 14.3784 812.269 15.7207C812.269 16.8916 812.675 18.0262 813.418 18.931C811.678 19.786 810.25 21.1643 809.333 22.8725C807.607 20.8923 806.656 18.3536 806.656 15.7262C806.659 12.8332 807.81 10.0594 809.856 8.01366C811.902 5.96794 814.675 4.81742 817.568 4.81451C820.461 4.81887 823.234 5.96986 825.279 8.01527C827.325 10.0607 828.476 12.8336 828.48 15.7262C828.49 18.353 827.547 20.8942 825.825 22.878L825.797 22.8725Z" fill="white" fill-opacity="0.6"/>
<path d="M862.254 2C858.61 2 855.114 3.44786 852.537 6.02512C849.96 8.60238 848.512 12.0979 848.512 15.7427C848.514 17.787 848.972 19.8051 849.852 21.65C850.733 23.4948 852.014 25.12 853.602 26.4071C853.661 26.4647 853.725 26.5162 853.794 26.561C856.202 28.4516 859.176 29.4778 862.238 29.4745C865.301 29.4777 868.277 28.4516 870.687 26.561C870.757 26.5176 870.821 26.4659 870.879 26.4071C872.467 25.12 873.749 23.4948 874.629 21.65C875.51 19.8051 875.968 17.787 875.97 15.7427C875.97 12.0979 874.521 8.60238 871.944 6.02512C869.367 3.44786 865.872 2 862.227 2H862.254ZM862.227 26.638C860.076 26.6449 857.971 26.0116 856.18 24.8184C856.668 23.6182 857.505 22.5922 858.584 21.8738C859.662 21.1553 860.931 20.7773 862.227 20.789C863.523 20.7773 864.792 21.1553 865.87 21.8738C866.948 22.5922 867.786 23.6182 868.274 24.8184C866.491 26.0061 864.397 26.6392 862.254 26.638H862.227ZM859.747 15.7262C859.747 15.1314 859.984 14.5609 860.405 14.1403C860.825 13.7197 861.396 13.4834 861.99 13.4834C862.585 13.4834 863.156 13.7197 863.576 14.1403C863.997 14.5609 864.233 15.1314 864.233 15.7262C864.233 16.3211 863.997 16.8915 863.576 17.3121C863.156 17.7328 862.585 17.969 861.99 17.969C861.4 17.9618 860.837 17.7223 860.422 17.3025C860.008 16.8827 859.775 16.3163 859.775 15.7262H859.747ZM870.461 22.8725C869.484 21.0474 867.921 19.6033 866.025 18.7716C866.692 17.8946 867.054 16.8228 867.053 15.7207C867.052 14.3784 866.518 13.0915 865.569 12.1424C864.62 11.1932 863.333 10.6594 861.99 10.6579C860.649 10.6608 859.364 11.1953 858.416 12.1443C857.468 13.0933 856.934 14.3794 856.933 15.7207C856.93 16.892 857.337 18.0275 858.082 18.931C856.341 19.7844 854.912 21.1632 853.998 22.8725C852.269 20.8928 851.316 18.3542 851.315 15.7262C851.319 12.8336 852.471 10.0607 854.516 8.01527C856.562 5.96986 859.334 4.81887 862.227 4.81451C865.121 4.81742 867.895 5.96776 869.941 8.01332C871.988 10.0589 873.14 12.8326 873.144 15.7262C873.152 18.3526 872.209 20.8929 870.489 22.878L870.461 22.8725Z" fill="white" fill-opacity="0.6"/>
<path d="M823.725 50.1106C823.439 49.8702 823.069 49.7526 822.696 49.7835C822.324 49.8144 821.978 49.9912 821.735 50.2755C821.497 50.559 821.38 50.9246 821.409 51.2937C821.438 51.6628 821.61 52.0058 821.889 52.249V52.249C822.144 52.4656 822.467 52.5845 822.802 52.5843C823.01 52.5878 823.218 52.5446 823.408 52.4581C823.598 52.3715 823.766 52.2438 823.901 52.084C824.139 51.7996 824.257 51.4331 824.228 51.0631C824.199 50.6932 824.027 50.3492 823.747 50.1051" fill="white" fill-opacity="0.6"/>
<path d="M820.977 47.2906C820.858 47.1492 820.713 47.0326 820.549 46.9474C820.385 46.8623 820.206 46.8102 820.022 46.7944C819.838 46.7786 819.653 46.7992 819.477 46.8551C819.301 46.911 819.138 47.0011 818.997 47.1202C818.711 47.3599 818.531 47.7031 818.497 48.075C818.463 48.4469 818.578 48.817 818.816 49.1046C818.949 49.267 819.117 49.3973 819.307 49.4859C819.497 49.5744 819.705 49.6188 819.915 49.6159C820.245 49.6175 820.564 49.5026 820.817 49.2916C821.104 49.0537 821.285 48.7117 821.32 48.3407C821.355 47.9697 821.241 47.6 821.004 47.3126" fill="white" fill-opacity="0.6"/>
<path d="M818.69 44.0584V44.0309C818.497 43.7119 818.186 43.4824 817.824 43.3928C817.462 43.3031 817.079 43.3606 816.76 43.5526C816.601 43.6471 816.463 43.772 816.352 43.9203C816.242 44.0686 816.162 44.2374 816.117 44.4167C816.072 44.596 816.063 44.7825 816.09 44.9653C816.118 45.1482 816.181 45.3238 816.276 45.4821C816.4 45.6944 816.578 45.8706 816.791 45.9931C817.004 46.1156 817.245 46.1801 817.491 46.1802C817.742 46.1816 817.99 46.1151 818.206 45.9879C818.366 45.8942 818.505 45.7699 818.617 45.6222C818.729 45.4745 818.81 45.3062 818.857 45.1269C818.903 44.9477 818.914 44.7611 818.888 44.5777C818.862 44.3943 818.8 44.2178 818.706 44.0584" fill="white" fill-opacity="0.6"/>
<path d="M815.771 36.714C815.696 36.3503 815.482 36.0306 815.173 35.8247C814.864 35.6188 814.486 35.5433 814.122 35.6146C813.939 35.6519 813.766 35.7249 813.612 35.8295C813.457 35.9341 813.325 36.0682 813.223 36.224C813.121 36.3799 813.051 36.5544 813.016 36.7376C812.982 36.9207 812.984 37.1089 813.022 37.2912V37.2912C813.093 37.6029 813.267 37.8814 813.517 38.081C813.767 38.2807 814.077 38.3898 814.396 38.3906C814.502 38.3902 814.607 38.3792 814.71 38.3576C815.074 38.2738 815.39 38.0491 815.589 37.7328C815.788 37.4166 815.853 37.0344 815.771 36.67" fill="white" fill-opacity="0.6"/>
<path d="M816.936 40.5016C816.795 40.1563 816.525 39.8805 816.182 39.7343C815.839 39.5881 815.452 39.5833 815.105 39.721C814.933 39.7894 814.777 39.891 814.645 40.0202C814.512 40.1494 814.406 40.3036 814.334 40.4737C814.261 40.6439 814.223 40.8268 814.222 41.0118C814.22 41.1967 814.255 41.3802 814.325 41.5515V41.5515C814.429 41.813 814.61 42.0371 814.843 42.1949C815.077 42.3527 815.351 42.4369 815.633 42.4366C815.821 42.4427 816.009 42.409 816.183 42.3376C816.529 42.1994 816.806 41.9297 816.953 41.5876C817.1 41.2455 817.106 40.8589 816.969 40.5126" fill="white" fill-opacity="0.6"/>
<path d="M858.131 50.2644C857.889 49.9789 857.543 49.8011 857.17 49.7702C856.797 49.7393 856.427 49.8577 856.141 50.0996V50.0996C855.861 50.3429 855.687 50.6865 855.657 51.0564C855.628 51.4264 855.744 51.7934 855.982 52.0785C856.117 52.237 856.286 52.3635 856.476 52.449C856.666 52.5346 856.873 52.577 857.081 52.5732C857.415 52.5764 857.739 52.4594 857.994 52.2434V52.2434C858.273 52.0002 858.445 51.6572 858.474 51.2882C858.503 50.9191 858.385 50.5534 858.147 50.2699" fill="white" fill-opacity="0.6"/>
<path d="M864.756 39.6991C864.409 39.5599 864.022 39.5639 863.679 39.7103C863.336 39.8567 863.064 40.1335 862.925 40.4797C862.857 40.6511 862.823 40.8343 862.826 41.0188C862.829 41.2032 862.868 41.3854 862.941 41.5546C863.015 41.7238 863.122 41.8767 863.255 42.0045C863.388 42.1323 863.545 42.2325 863.717 42.2992C863.881 42.3648 864.056 42.3984 864.233 42.3982C864.516 42.3977 864.793 42.3126 865.027 42.1539C865.261 41.9953 865.442 41.7702 865.547 41.5077C865.686 41.1614 865.683 40.774 865.536 40.4307C865.39 40.0874 865.113 39.8163 864.766 39.6771" fill="white" fill-opacity="0.6"/>
<path d="M860.88 47.0981C860.594 46.8586 860.224 46.7422 859.853 46.7741C859.481 46.806 859.137 46.9838 858.895 47.2685C858.895 47.2685 858.895 47.2685 858.895 47.2685C858.658 47.5543 858.544 47.9227 858.578 48.2928C858.612 48.6628 858.791 49.0043 859.077 49.242C859.331 49.4514 859.649 49.5661 859.978 49.5663C860.187 49.5684 860.395 49.524 860.585 49.4366C860.775 49.3491 860.943 49.2208 861.078 49.0606C861.197 48.9195 861.288 48.7562 861.344 48.5801C861.401 48.404 861.422 48.2185 861.407 48.0342C861.391 47.8499 861.34 47.6704 861.255 47.506C861.171 47.3416 861.054 47.1955 860.913 47.0761" fill="white" fill-opacity="0.6"/>
<path d="M863.112 43.5525C862.791 43.3603 862.408 43.3026 862.046 43.3922C861.683 43.4818 861.371 43.7114 861.177 44.0308V44.0583C860.989 44.3814 860.936 44.7658 861.031 45.1275C861.126 45.4892 861.36 45.7985 861.683 45.9878C861.897 46.1151 862.142 46.1816 862.392 46.1802C862.637 46.1806 862.878 46.1169 863.091 45.9954C863.304 45.8739 863.482 45.6988 863.607 45.4875C863.799 45.1673 863.856 44.7839 863.767 44.4213C863.677 44.0587 863.448 43.7463 863.128 43.5525" fill="white" fill-opacity="0.6"/>
<path d="M866.124 31.4645C865.75 31.4449 865.384 31.5738 865.105 31.823C864.826 32.0721 864.657 32.4214 864.634 32.7948C864.615 33.1678 864.744 33.5333 864.993 33.8115C865.242 34.0896 865.592 34.2577 865.965 34.279H866.047C866.407 34.2781 866.753 34.139 867.014 33.8905C867.275 33.642 867.431 33.3029 867.449 32.9432C867.468 32.5711 867.34 32.2064 867.092 31.9284C866.844 31.6504 866.496 31.4817 866.124 31.459" fill="white" fill-opacity="0.6"/>
<path d="M848.693 4.54515C848.518 4.48785 848.332 4.46584 848.148 4.48046C847.964 4.49509 847.784 4.54607 847.619 4.63037C847.455 4.71467 847.309 4.83068 847.189 4.97173C847.07 5.11277 846.979 5.27605 846.923 5.45218C846.866 5.62794 846.844 5.81325 846.858 5.99753C846.873 6.18181 846.924 6.36138 847.008 6.5259C847.092 6.69042 847.209 6.83667 847.35 6.95617C847.491 7.07567 847.654 7.16609 847.83 7.22223V7.22223C847.97 7.27 848.117 7.29415 848.264 7.2937C848.562 7.29343 848.852 7.1992 849.093 7.02448C849.334 6.84976 849.513 6.60347 849.605 6.3207C849.72 5.96496 849.689 5.57841 849.519 5.24564C849.349 4.91287 849.054 4.66099 848.699 4.54515" fill="white" fill-opacity="0.6"/>
<path d="M844.361 3.5281H844.323C843.953 3.47287 843.577 3.56617 843.276 3.78766C842.975 4.00915 842.774 4.34073 842.717 4.70993C842.69 4.89295 842.699 5.0796 842.744 5.2591C842.789 5.4386 842.869 5.60748 842.979 5.75607C843.09 5.90465 843.228 6.03001 843.387 6.125C843.546 6.21999 843.722 6.28271 843.905 6.3096C843.982 6.3177 844.059 6.3177 844.136 6.3096C844.47 6.3098 844.792 6.19087 845.046 5.97422C845.3 5.75756 845.468 5.45739 845.521 5.12771C845.551 4.94536 845.546 4.75879 845.504 4.57867C845.462 4.39856 845.385 4.2285 845.277 4.07828C845.169 3.92806 845.033 3.80063 844.876 3.70338C844.718 3.60612 844.544 3.54095 844.361 3.5116" fill="white" fill-opacity="0.6"/>
<path d="M839.909 3.20923H839.876C839.691 3.21138 839.507 3.25011 839.337 3.32317C839.167 3.39623 839.013 3.5022 838.883 3.635C838.754 3.76779 838.653 3.9248 838.584 4.097C838.516 4.26921 838.482 4.45319 838.485 4.63846C838.489 5.00787 838.639 5.36078 838.901 5.62098C839.163 5.88119 839.517 6.02782 839.887 6.02924V6.02924C840.072 6.02996 840.255 5.99408 840.427 5.92369C840.598 5.85329 840.754 5.74979 840.885 5.61904C841.016 5.48829 841.121 5.33289 841.192 5.1618C841.263 4.9907 841.3 4.80729 841.3 4.62202C841.3 4.43675 841.263 4.25327 841.192 4.08217C841.121 3.91108 841.016 3.75568 840.885 3.62493C840.754 3.49418 840.598 3.39068 840.427 3.32028C840.255 3.24989 840.072 3.21401 839.887 3.21473" fill="white" fill-opacity="0.6"/>
<path d="M832.894 5.49065C832.841 5.31341 832.754 5.14834 832.637 5.00502C832.52 4.86171 832.376 4.743 832.213 4.65562C832.05 4.56824 831.871 4.51392 831.687 4.49591C831.503 4.4779 831.317 4.49655 831.14 4.55067V4.55067C830.785 4.66213 830.488 4.90949 830.314 5.23895C830.14 5.5684 830.103 5.95325 830.211 6.30971C830.302 6.59792 830.481 6.84983 830.725 7.02879C830.968 7.20775 831.262 7.30444 831.564 7.30472C831.706 7.3039 831.846 7.28167 831.981 7.23876C832.337 7.12964 832.636 6.88374 832.811 6.55504C832.986 6.22634 833.024 5.84161 832.916 5.48515" fill="white" fill-opacity="0.6"/>
<path d="M837.088 4.75964C837.028 4.39125 836.824 4.06185 836.521 3.84348C836.218 3.62511 835.841 3.53553 835.472 3.59425L835.675 4.99047L835.472 3.59425C835.102 3.64989 834.769 3.85018 834.546 4.15114C834.324 4.45211 834.23 4.82909 834.285 5.19936C834.335 5.53251 834.503 5.83671 834.758 6.05661C835.013 6.27651 835.338 6.39754 835.675 6.39776C835.745 6.40342 835.815 6.40342 835.884 6.39776H835.917C836.287 6.33702 836.618 6.13232 836.838 5.82846C837.057 5.5246 837.147 5.14624 837.088 4.77608" fill="white" fill-opacity="0.6"/>
<path d="M815.188 32.4924C815.113 32.1294 814.897 31.8106 814.589 31.6049C814.28 31.3993 813.903 31.3231 813.539 31.393C813.176 31.4673 812.856 31.6822 812.65 31.9911C812.444 32.3 812.369 32.6778 812.44 33.0421C812.44 33.0421 812.44 33.0421 812.44 33.0751C812.509 33.3868 812.682 33.6657 812.93 33.8656C813.179 34.0655 813.489 34.1745 813.809 34.1745C813.914 34.1744 814.019 34.1633 814.122 34.1415C814.302 34.1012 814.473 34.0257 814.625 33.9193C814.776 33.813 814.905 33.6778 815.004 33.5215C815.103 33.3653 815.17 33.1911 815.202 33.0089C815.233 32.8266 815.229 32.6399 815.188 32.4594" fill="white" fill-opacity="0.6"/>
<path d="M940.207 59.4831L1017.4 60.0329C1017.56 60.0343 1017.72 60.0034 1017.87 59.942C1018.03 59.8806 1018.16 59.7898 1018.28 59.6749C1018.4 59.5599 1018.49 59.4231 1018.55 59.2723C1018.62 59.1215 1018.65 58.9596 1018.65 58.796L1018.97 13.9782C1018.98 13.6482 1018.85 13.3311 1018.61 13.0962C1018.38 12.8613 1018.07 12.7278 1017.74 12.7249L940.547 12.1752C940.217 12.1737 939.9 12.303 939.665 12.5348C939.43 12.7666 939.297 13.082 939.294 13.412L938.97 58.2353C938.97 58.5649 939.1 58.8812 939.331 59.1158C939.563 59.3503 939.877 59.4843 940.207 59.4887V59.4831ZM941.773 14.6763L1016.47 15.226L1016.17 57.5537L941.471 57.004L941.773 14.6763Z" fill="white" fill-opacity="0.6"/>
<path d="M978.801 59.7689C978.965 59.7704 979.127 59.7395 979.279 59.678C979.43 59.6166 979.568 59.5258 979.685 59.4109C979.801 59.296 979.894 59.1592 979.957 59.0084C980.021 58.8575 980.054 58.6957 980.054 58.5321L980.379 13.7142C980.381 13.3842 980.251 13.0671 980.019 12.8322C979.788 12.5973 979.472 12.4638 979.142 12.4609C978.979 12.4594 978.817 12.4902 978.665 12.5513C978.514 12.6123 978.377 12.7026 978.26 12.817C978.144 12.9313 978.051 13.0675 977.987 13.2177C977.924 13.3678 977.89 13.5291 977.889 13.6923L977.564 58.5155C977.563 58.8456 977.692 59.1627 977.924 59.3976C978.156 59.6325 978.471 59.766 978.801 59.7689Z" fill="white" fill-opacity="0.6"/>
<path d="M978.901 47.3071C981.872 47.3261 984.729 46.1651 986.845 44.079C988.961 41.9929 990.163 39.1523 990.187 36.1809C990.206 33.2106 989.045 30.354 986.96 28.2381C984.875 26.1223 982.036 24.9202 979.066 24.8955C976.094 24.8779 973.237 26.0392 971.121 28.1248C969.004 30.2104 967.801 33.0502 967.775 36.0216C967.757 38.9925 968.919 41.849 971.005 43.9647C973.09 46.0804 975.93 47.2824 978.901 47.3071V47.3071ZM979.044 27.3856C980.189 27.3949 981.322 27.6299 982.377 28.077C983.432 28.524 984.388 29.1745 985.192 29.9912C985.995 30.8079 986.63 31.775 987.06 32.837C987.489 33.899 987.706 35.0353 987.696 36.1809C987.687 37.3266 987.452 38.4592 987.005 39.514C986.558 40.5689 985.907 41.5254 985.09 42.3289C984.274 43.1323 983.307 43.767 982.245 44.1968C981.183 44.6265 980.047 44.8428 978.901 44.8334C977.755 44.8247 976.622 44.5904 975.567 44.1435C974.511 43.6967 973.555 43.0462 972.752 42.2294C971.948 41.4125 971.313 40.4452 970.883 39.3828C970.454 38.3205 970.238 37.1839 970.248 36.038C970.267 33.7262 971.203 31.5164 972.85 29.894C974.497 28.2717 976.721 27.3695 979.033 27.3856H979.044Z" fill="white" fill-opacity="0.6"/>
<path d="M1007.52 48.7747L1017.48 48.8462C1017.81 48.8477 1018.13 48.7183 1018.36 48.4865C1018.6 48.2547 1018.73 47.9393 1018.73 47.6093L1018.9 25.1977C1018.9 24.8672 1018.77 24.5501 1018.53 24.3153C1018.3 24.0806 1017.99 23.9472 1017.65 23.9443L1007.69 23.8729C1007.53 23.8714 1007.37 23.9023 1007.22 23.9638C1007.07 24.0254 1006.93 24.1163 1006.81 24.2312C1006.7 24.3462 1006.6 24.4831 1006.54 24.6339C1006.48 24.7847 1006.45 24.9463 1006.45 25.1097L1006.28 47.5214C1006.28 47.8514 1006.41 48.1685 1006.64 48.4034C1006.87 48.6383 1007.19 48.7718 1007.52 48.7747V48.7747ZM1008.93 26.3741L1016.4 26.429L1016.25 46.345L1008.78 46.2955L1008.93 26.3741Z" fill="white" fill-opacity="0.6"/>
<path d="M940.289 48.2746L950.249 48.3461C950.413 48.3468 950.575 48.3154 950.726 48.2536C950.877 48.1918 951.014 48.101 951.13 47.9861C951.246 47.8713 951.338 47.7347 951.401 47.5842C951.464 47.4338 951.497 47.2724 951.498 47.1092L951.662 24.7031C951.664 24.5392 951.633 24.3766 951.572 24.2247C951.51 24.0727 951.419 23.9344 951.304 23.8175C951.189 23.7006 951.053 23.6075 950.902 23.5434C950.751 23.4794 950.589 23.4457 950.425 23.4443L940.465 23.3728C940.135 23.3728 939.819 23.5025 939.584 23.734C939.35 23.9655 939.216 24.2801 939.211 24.6096L939.052 47.0268C939.051 47.1899 939.082 47.3516 939.144 47.5026C939.206 47.6537 939.297 47.791 939.412 47.9069C939.527 48.0228 939.663 48.1149 939.814 48.178C939.964 48.2411 940.125 48.2739 940.289 48.2746V48.2746ZM941.696 25.8739L949.161 25.9289L949.018 45.8504L941.553 45.7954L941.696 25.8739Z" fill="white" fill-opacity="0.6"/>
<path d="M1124.01 48.0245C1119.25 52.0349 1115.01 56.6153 1111.37 61.6628C1111.15 61.9617 1111.07 62.334 1111.12 62.6978C1111.18 63.0617 1111.38 63.3873 1111.68 63.6033C1111.92 63.7735 1112.2 63.8657 1112.5 63.8671C1112.71 63.8697 1112.93 63.8213 1113.12 63.7258C1113.32 63.6304 1113.49 63.4905 1113.62 63.3174C1117.13 58.4544 1121.22 54.0402 1125.8 50.1739C1125.94 50.0561 1126.05 49.9119 1126.14 49.7497C1126.22 49.5874 1126.27 49.4103 1126.29 49.2285C1126.3 49.0466 1126.28 48.8637 1126.22 48.6901C1126.17 48.5165 1126.08 48.3557 1125.96 48.2169C1125.84 48.0767 1125.7 47.9611 1125.54 47.8768C1125.38 47.7925 1125.2 47.7412 1125.02 47.7259C1124.84 47.7105 1124.65 47.7314 1124.48 47.7874C1124.31 47.8434 1124.15 47.9333 1124.01 48.0519" fill="white" fill-opacity="0.6"/>
<path d="M1153 34.0619C1152.9 33.8008 1152.72 33.5767 1152.49 33.4188C1152.26 33.2608 1151.99 33.1765 1151.71 33.1768C1150.32 33.1768 1148.94 33.2116 1147.56 33.2813V30.5327C1148.89 30.2631 1150.11 29.6072 1151.06 28.6472C1151.98 27.7221 1152.62 26.5593 1152.91 25.2899C1153.2 24.0205 1153.13 22.6948 1152.71 21.4625L1148.82 10.2155C1148.63 9.65866 1148.27 9.17543 1147.79 8.83482C1147.31 8.49422 1146.74 8.3137 1146.15 8.319C1145.56 8.31286 1144.99 8.49303 1144.51 8.83375C1144.03 9.17447 1143.67 9.6582 1143.48 10.2155L1139.59 21.4625C1139.16 22.6948 1139.1 24.0205 1139.39 25.2899C1139.68 26.5593 1140.32 27.7221 1141.23 28.6472C1142.2 29.6152 1143.43 30.275 1144.77 30.5437V33.4682C1141.97 33.7145 1139.18 34.109 1136.42 34.65V28.3284C1136.42 28.1388 1136.38 27.9516 1136.3 27.7787L1133.52 21.6659C1133.41 21.423 1133.23 21.2172 1133.01 21.073C1132.78 20.9288 1132.52 20.8522 1132.25 20.8523H1125.03V16.6691C1125.03 16.479 1124.99 16.2917 1124.91 16.1193L1122.16 10.0066C1122.05 9.76407 1121.87 9.55849 1121.65 9.41426C1121.42 9.27002 1121.16 9.19321 1120.9 9.19302H1114.23C1113.96 9.19321 1113.7 9.27002 1113.48 9.41426C1113.25 9.55849 1113.07 9.76407 1112.96 10.0066L1110.19 16.1193C1110.11 16.2917 1110.06 16.479 1110.06 16.6691V20.8523H1102.84C1102.58 20.8525 1102.32 20.9293 1102.09 21.0736C1101.87 21.2178 1101.69 21.4234 1101.58 21.6659L1098.8 27.7787C1098.72 27.9524 1098.68 28.1391 1098.68 28.3284V34.6336C1095.91 34.0939 1093.12 33.703 1090.32 33.4627V30.5382C1091.66 30.2723 1092.89 29.6142 1093.86 28.6472C1094.78 27.7221 1095.42 26.5593 1095.71 25.2899C1096 24.0205 1095.93 22.6948 1095.51 21.4625L1091.61 10.2155C1091.43 9.6582 1091.07 9.17447 1090.59 8.83375C1090.11 8.49303 1089.53 8.31286 1088.95 8.319C1088.36 8.3137 1087.78 8.49422 1087.31 8.83482C1086.83 9.17543 1086.47 9.65866 1086.28 10.2155L1082.39 21.4625C1081.97 22.6948 1081.9 24.0205 1082.19 25.2901C1082.48 26.5596 1083.12 27.7224 1084.04 28.6472C1085 29.6028 1086.21 30.2564 1087.54 30.5272V33.2758C1086.16 33.2061 1084.78 33.1713 1083.39 33.1713C1083.21 33.1706 1083.03 33.2059 1082.86 33.2752C1082.69 33.3445 1082.54 33.4464 1082.41 33.5751C1082.28 33.7038 1082.18 33.8568 1082.11 34.0252C1082.04 34.1937 1082 34.3742 1082 34.5566C1082 34.9255 1082.15 35.2792 1082.41 35.54C1082.67 35.8008 1083.03 35.9474 1083.39 35.9474C1094.08 35.9213 1104.66 38.1699 1114.41 42.5439C1109.9 44.9625 1105.64 47.8163 1101.69 51.0644C1096.43 46.3029 1090.44 42.4065 1083.96 39.5205C1083.62 39.3705 1083.24 39.3603 1082.9 39.4922C1082.55 39.6241 1082.27 39.8874 1082.12 40.2241C1081.98 40.5611 1081.97 40.9431 1082.1 41.287C1082.23 41.6309 1082.49 41.9088 1082.83 42.0602C1088.93 44.7814 1094.58 48.4368 1099.56 52.8949C1097.03 55.1216 1094.64 57.5085 1092.41 60.0412C1090.14 55.8622 1087.47 51.9134 1084.43 48.2499C1084.2 47.9666 1083.86 47.7883 1083.49 47.7543C1083.13 47.7203 1082.76 47.8333 1082.48 48.0685C1082.19 48.3041 1082.01 48.6425 1081.98 49.0095C1081.95 49.3764 1082.06 49.7418 1082.29 50.0255C1085.64 54.0615 1088.52 58.4568 1090.9 63.1305C1091 63.3367 1091.16 63.5131 1091.35 63.6436C1091.54 63.7741 1091.77 63.8547 1092 63.8781C1092.23 63.9045 1092.46 63.8736 1092.67 63.7882C1092.88 63.7028 1093.07 63.5655 1093.22 63.3889C1105.61 48.4636 1123.25 38.8521 1142.5 36.5301C1139.71 37.748 1137 39.134 1134.38 40.6804C1134.22 40.7728 1134.09 40.8955 1133.98 41.0412C1133.87 41.187 1133.79 41.353 1133.74 41.5297C1133.69 41.7065 1133.68 41.8904 1133.71 42.071C1133.74 42.2517 1133.8 42.4255 1133.89 42.5824C1134.01 42.7903 1134.19 42.9626 1134.4 43.0822C1134.61 43.2018 1134.84 43.2645 1135.08 43.264C1135.33 43.2646 1135.58 43.1982 1135.79 43.0716C1139.11 41.1145 1142.58 39.4233 1146.17 38.0143C1139.33 45.0642 1133.6 53.1076 1129.17 61.8717C1129.09 62.0339 1129.04 62.2111 1129.02 62.3929C1129.01 62.5746 1129.03 62.7574 1129.08 62.9307C1129.14 63.104 1129.23 63.2643 1129.35 63.4024C1129.47 63.5404 1129.62 63.6536 1129.78 63.7352C1129.97 63.8363 1130.18 63.8891 1130.4 63.8891C1130.66 63.8899 1130.91 63.8188 1131.13 63.6838C1131.35 63.5488 1131.53 63.3553 1131.64 63.125C1136.9 52.7549 1144.02 43.4386 1152.64 35.6395C1152.85 35.4515 1153 35.2047 1153.06 34.9318C1153.12 34.6589 1153.11 34.3728 1153 34.1113V34.0619ZM1142.22 22.3805L1146.11 11.1335H1146.17L1150.06 22.3805C1150.31 23.1199 1150.36 23.9147 1150.18 24.6759C1150.01 25.4371 1149.62 26.1346 1149.07 26.6902C1148.69 27.0791 1148.23 27.3874 1147.72 27.5969C1147.22 27.8064 1146.67 27.9131 1146.13 27.9107C1145.58 27.9131 1145.04 27.8064 1144.53 27.5969C1144.03 27.3874 1143.57 27.0791 1143.18 26.6902C1142.63 26.1334 1142.25 25.4346 1142.08 24.6729C1141.91 23.9111 1141.96 23.1171 1142.22 22.3805V22.3805ZM1085 22.3805L1088.89 11.1335H1088.96L1092.85 22.3805C1093.1 23.1195 1093.15 23.9152 1092.97 24.677C1092.8 25.4389 1092.41 26.1364 1091.86 26.6902C1091.47 27.0772 1091.01 27.3842 1090.51 27.5936C1090 27.803 1089.46 27.9108 1088.91 27.9108C1088.37 27.9108 1087.82 27.803 1087.32 27.5936C1086.81 27.3842 1086.35 27.0772 1085.97 26.6902C1085.42 26.1323 1085.04 25.4337 1084.87 24.6727C1084.7 23.9116 1084.75 23.118 1085 22.3805V22.3805ZM1129.35 32.4182C1129.17 32.4175 1128.99 32.4528 1128.82 32.5221C1128.65 32.5914 1128.5 32.6933 1128.37 32.822C1128.24 32.9507 1128.14 33.1037 1128.07 33.2721C1128 33.4406 1127.96 33.6211 1127.96 33.8035V36.8214C1126.98 37.1293 1126.01 37.4554 1125.05 37.7999V29.7247H1133.68V35.2603C1132.7 35.4911 1131.74 35.733 1130.76 36.0024V33.8035C1130.76 33.6188 1130.73 33.4358 1130.66 33.2653C1130.59 33.0948 1130.48 32.9401 1130.35 32.8105C1130.22 32.6809 1130.06 32.579 1129.89 32.5107C1129.72 32.4424 1129.53 32.4091 1129.35 32.4127V32.4182ZM1117.54 35.678C1117.36 35.678 1117.18 35.7141 1117.01 35.784C1116.84 35.854 1116.69 35.9565 1116.56 36.0857C1116.43 36.2149 1116.33 36.3683 1116.26 36.537C1116.19 36.7057 1116.16 36.8864 1116.16 37.0688V40.2846C1115.06 39.7788 1113.96 39.3006 1112.83 38.8498V29.7081H1122.27V38.8718C1121.14 39.3226 1120.03 39.799 1118.93 40.3011V37.0853C1118.94 36.9008 1118.9 36.7176 1118.83 36.5463C1118.77 36.375 1118.66 36.2191 1118.53 36.0876C1118.4 35.9561 1118.25 35.8517 1118.08 35.7805C1117.91 35.7092 1117.73 35.6725 1117.54 35.6726V35.678ZM1122.27 18.0433V26.9322H1118.93V23.3865C1118.93 23.2041 1118.9 23.0235 1118.83 22.8551C1118.76 22.6867 1118.65 22.5337 1118.53 22.405C1118.4 22.2763 1118.24 22.1744 1118.07 22.1051C1117.91 22.0358 1117.72 22.0006 1117.54 22.0013C1117.17 22.0013 1116.82 22.1472 1116.56 22.407C1116.3 22.6668 1116.16 23.0191 1116.16 23.3865V26.9322H1112.83V18.0433H1122.27ZM1131.37 23.6174L1132.89 26.9487H1125.05V23.6174H1131.37ZM1115.11 11.9361H1119.98L1121.5 15.2728H1113.59L1115.11 11.9361ZM1103.72 23.6229H1110.04V26.9541H1102.21L1103.72 23.6229ZM1101.44 29.7302H1110.04V37.7724C1109.08 37.4261 1108.11 37.0962 1107.13 36.7884V33.787C1107.13 33.4186 1106.98 33.0657 1106.72 32.8052C1106.46 32.5447 1106.11 32.3977 1105.74 32.3962C1105.37 32.3977 1105.02 32.5449 1104.76 32.8056C1104.5 33.0662 1104.35 33.4191 1104.35 33.787V35.9859C1103.39 35.722 1102.41 35.4746 1101.44 35.2438V29.7302Z" fill="white" fill-opacity="0.6"/>
<path d="M1130.83 46.2379C1131.09 45.9765 1131.24 45.6228 1131.24 45.2539C1131.23 44.887 1131.09 44.5355 1130.83 44.2754C1130.57 44.0152 1130.21 43.869 1129.84 43.8687C1129.48 43.869 1129.12 44.0152 1128.86 44.2754C1128.6 44.5355 1128.46 44.887 1128.45 45.2539C1128.45 45.6228 1128.6 45.9765 1128.86 46.2379C1129.12 46.4982 1129.48 46.6444 1129.84 46.6447C1130.21 46.6432 1130.57 46.4972 1130.83 46.2379" fill="white" fill-opacity="0.6"/>
</svg>
