<svg width="140" height="159" viewBox="0 0 140 159" fill="none" xmlns="http://www.w3.org/2000/svg">
<path d="M92.9671 54.6776C92.5636 53.4679 91.5084 52.6304 90.2359 52.5063L77.728 51.4827L72.9173 39.9128C72.4207 38.7342 71.3034 37.9897 70.0309 37.9897C68.7584 37.9897 67.61 38.7342 67.1444 39.9128L62.3027 51.4827L49.8259 52.5063C48.5534 52.5993 47.4981 53.4679 47.0946 54.6776C46.6912 55.8873 47.0946 57.1901 48.0257 58.0276L57.523 66.1854L54.6366 78.3756C54.3573 79.6163 54.8228 80.8881 55.847 81.6325C56.8712 82.377 58.2369 82.439 59.3232 81.7566L70.0309 75.2427L80.7386 81.7566C81.8869 82.408 83.1284 82.408 84.2147 81.6325C85.2389 80.8881 85.7045 79.5853 85.4251 78.3756L82.5387 66.1854L92.036 58.0276C92.9981 57.1901 93.3706 55.8873 92.9671 54.6776ZM76.9831 62.6803C76.0831 63.4558 75.7106 64.6345 75.9589 65.7821L77.5418 72.5131L71.6448 68.915C70.5585 68.2636 69.4101 68.3256 68.3859 68.915L62.4579 72.5131L64.0718 65.7821C64.3511 64.6345 63.9476 63.4558 63.0476 62.6803L57.8023 58.1827L64.6925 57.6243C65.8719 57.5313 66.8961 56.7868 67.3307 55.7012L69.9998 49.3114L72.669 55.7012C73.1346 56.7868 74.1277 57.5313 75.3071 57.6243L82.1973 58.1827L76.9521 62.6803H76.9831ZM38.5285 126.051C38.5285 127.788 37.1318 129.184 35.3937 129.184C33.6557 129.184 32.259 127.788 32.259 126.051C32.259 124.314 33.6557 122.918 35.3937 122.918C37.1318 122.918 38.5285 124.314 38.5285 126.051ZM138.871 54.6466C138.871 54.6466 114.414 33.9883 110.658 30.7935C110.099 30.3282 109.386 30.018 108.61 30.018C103.054 30.018 98.5227 25.5203 98.5227 19.9681C98.5227 18.231 97.126 16.8352 95.388 16.8352H94.1775L77.3866 2.72186C73.1035 -0.907287 66.8961 -0.907287 62.6131 2.72186L45.8532 16.8972H44.6427C42.9047 16.8972 41.508 18.2931 41.508 20.0301C41.508 25.5514 36.9766 30.08 31.421 30.08C30.583 30.08 29.8071 30.4212 29.2174 30.9796L1.12905 54.6466C0.446235 55.2359 0.0117188 56.0734 0.0117188 57.035V155.828C0.0117188 157.565 1.40838 158.961 3.14644 158.961H136.853C138.591 158.961 139.988 157.565 139.988 155.828V57.035C139.988 56.0734 139.553 55.2049 138.871 54.6466ZM111.744 39.9439L128.38 53.9952C124.407 54.3674 120.652 56.0424 117.703 58.803C116.121 60.2609 114.072 62.215 111.744 64.4173V39.9439ZM66.6789 7.49868C68.6032 5.85471 71.4275 5.85471 73.3518 7.49868L85.0837 17.4246C84.2457 17.9829 83.7181 18.9445 83.7181 19.9991C83.7181 21.7361 82.2904 23.1319 80.5524 23.1319C78.8143 23.1319 77.3866 21.7361 77.3866 19.9991C77.3866 18.262 75.9899 16.8662 74.2519 16.8662H65.7478C64.0097 16.8662 62.6131 18.262 62.6131 19.9991C62.6131 21.7361 61.1854 23.1319 59.4473 23.1319C57.7092 23.1319 56.2815 21.7361 56.2815 19.9991C56.2815 18.9134 55.7539 17.9829 54.9159 17.4246L66.6789 7.49868ZM34.5247 36.0356C41.0424 34.7638 46.1946 29.6458 47.4671 23.1629H50.5397C51.8433 26.8231 55.3504 29.4287 59.4473 29.4287C63.5442 29.4287 67.0513 26.7921 68.3549 23.1629H71.6758C72.9794 26.8231 76.4865 29.4287 80.5834 29.4287C84.6803 29.4287 88.1874 26.7921 89.491 23.1629H92.5636C93.8361 29.6458 98.9883 34.7638 105.506 36.0356V70.3418C92.9671 82.1908 77.3866 96.9246 77.3866 96.9246C72.9483 94.288 67.2996 94.1639 62.7062 96.9246C62.7062 96.9246 47.1257 82.1598 34.5868 70.3418V36.0356H34.5247ZM28.2553 39.9439V64.4173C25.9275 62.215 23.848 60.2609 22.2962 58.803C19.3477 56.0424 15.5922 54.3674 11.6195 53.9952L28.2553 39.9439ZM11.1539 152.727L27.1069 137.962C30.1795 135.108 25.8965 130.517 22.8548 133.34L6.28116 148.694V60.1988H9.88144C12.9541 60.1988 15.8405 61.3465 18.0752 63.4558L57.8334 101.019L43.5875 114.202C40.5148 117.055 44.7979 121.646 47.8706 118.792L64.5684 103.345C68.0755 100.244 72.638 100.771 75.4623 103.345L128.846 152.758H11.1539V152.727ZM133.719 148.694L82.1973 101.019L121.956 63.4558C124.19 61.3465 127.077 60.1988 130.149 60.1988H133.75V148.694H133.719Z" fill="#C481B6"/>
</svg>
